<?xml version="1.0" encoding="utf-8"?>
<!-- Generator: Adobe Illustrator 19.0.0, SVG Export Plug-In . SVG Version: 6.00 Build 0)  -->
<svg version="1.1" id="Layer_1" xmlns="http://www.w3.org/2000/svg" xmlns:xlink="http://www.w3.org/1999/xlink" x="0px" y="0px"
	 viewBox="-75 75.5 2500 715" style="enable-background:new -75 75.5 2500 715;" xml:space="preserve">
<style type="text/css">
	.st0{fill:#231F20;}
	.st1{fill:#27AAE1;}
</style>
<g>
	<path class="st0" d="M106.9,639.3c0,41.7-17.1,97.8-67.7,97.8c-25.4,0-40.3-13.1-40.3-39C-1.1,649,70.7,639.3,106.9,639.3
		 M179.4,782.9V551.1C179.4,475.9,130.1,450,61,450c-67.6,0-123.8,28.7-123.8,103.3h74c0-32.2,17.1-49.9,49.8-49.9
		c37.5,0,45.8,27.2,45.8,59.4v32.2C33,597-75,607.2-75,705c0,55.4,43.8,85.4,95.7,85.4c35.6,0,68.4-11.6,84.9-45.2h1.3v37.6
		L179.4,782.9 M404.4,568.9h80.7c0-80-44.4-118.9-123.8-118.9c-97.6,0-149.1,61.5-149.1,155.8c0,113.5,58.1,184.7,174.3,184.7
		c32.2,0,64.3-5.4,95.1-15.1v-46.5c-17.8,6.1-36.3,8.2-54.6,8.2c-86.3,0-134.1-62.9-134.1-144.9c0-38.9,14.4-88.8,62.2-88.8
		C394.9,503.4,404.4,535.5,404.4,568.9 M696,568.9h80.8c0-80-44.5-118.9-123.8-118.9c-97.7,0-149,61.5-149,155.8
		c0,113.5,58.1,184.7,174.3,184.7c32.1,0,64.3-5.4,95-15.1v-46.5c-17.7,6.1-36.2,8.2-54.7,8.2c-86.1,0-134.1-62.9-134.1-144.9
		c0-38.9,14.5-88.8,62.3-88.8C686.4,503.4,696,535.5,696,568.9 M993.5,554.5h-119c3.5-32.8,28.7-56.2,61.2-56.2
		C970.8,498.4,993.5,519.7,993.5,554.5 M1065.3,600.4v-18.5c0-79.3-41-131.9-123.8-131.9c-97,0-139.6,60.8-139.6,153.1
		c0,107.2,48.5,187.3,164.1,187.3c30.8,0,61.7-3.4,90.9-13v-52.6c-19.2,6.8-41.6,12.2-62.1,12.2c-73.8,0-122.5-67.6-122.5-136.6
		L1065.3,600.4 M1290.2,782.9h76.1V557.3c0-56-26.2-107.3-88.3-107.3c-46.5,0-79.2,26.7-96.4,68.3h-1.3v-61h-76v325.6h76V642.1
		c0-43.8,21.9-121,76.4-121c7.8,0,16.4,0.6,22.1,6.2c12.8,12.2,11.6,53.9,11.6,69.7V782.9 M1523.9,510.1h96.7v-52.8h-96.7V349.4
		l-75.6,30.7v77.1h-63.7v52.8h63.7v190.7c0,67.8,33.1,89.6,99.7,89.6c20.6,0,41.6-2,62-5.4v-53.4c-11.4,2.8-23,5.4-34.8,5.4
		c-47.3,0-51.3-34.8-51.3-73.2L1523.9,510.1 M1840.2,782.9h75.9V457.3h-75.9v140.9c0,43.8-21.9,121-76.7,121c-7.4,0-16.4-0.5-21.9-6
		c-13.1-12.4-11.6-54.1-11.6-69.7V457.3h-75.8v225.8c0,56.1,25.8,107.4,88.1,107.4c45.9,0,79.4-27.4,96.6-68.3h1.3L1840.2,782.9
		 M2039.9,640c0-76.6,28.7-110.7,106.5-110.7V450c-54.6,0-80,22.6-105.3,67.6h-1.3v-60.2h-76v325.6h76L2039.9,640 M2353.2,554.5
		h-119c3.4-32.8,28.7-56.2,61.5-56.2C2330.7,498.4,2353.2,519.7,2353.2,554.5 M2425,600.4v-18.5c0-79.3-41-131.9-123.8-131.9
		c-97.1,0-139.5,60.8-139.5,153.1c0,107.2,48.6,187.3,164,187.3c30.8,0,61.6-3.4,91-13v-52.6c-19.1,6.8-41.7,12.2-62.1,12.2
		c-74,0-122.6-67.6-122.6-136.6L2425,600.4"/>
	<path class="st1" d="M1384.6,75.5v53.5c0,0,151.6,58.7,173.3,67.2c-21.7,8.3-173.3,66.8-173.3,66.8v53.5l236.1-95.9v-49.1
		L1384.6,75.5"/>
</g>
</svg>
