<svg width="217" height="44" viewBox="0 0 217 44" fill="none" xmlns="http://www.w3.org/2000/svg">
<g clip-path="url(#clip0_592_19201)">
<path d="M209.409 1.49477V0.617073C208.232 0.20829 206.996 -0.000254888 205.75 2.33792e-07H201.814V7.64251H209.409V1.49477Z" fill="#00B869"/>
<path d="M201.814 15.2888V22.3181C202.992 22.7238 204.228 22.931 205.473 22.9313H209.409V15.2888H201.814Z" fill="#00B869"/>
<path d="M201.814 7.64258H194.223V11.6056C194.218 14.0934 195.032 16.5127 196.537 18.4854C197.876 20.2658 199.714 21.6009 201.814 22.3182V22.3182V7.64258Z" fill="#FFD200"/>
<path d="M214.685 4.44603C213.537 2.94061 212.037 1.74389 210.319 0.962062C210.024 0.823629 209.72 0.707058 209.409 0.613281V0.613281V15.2889H217V11.3258C217.009 8.83151 216.195 6.40483 214.685 4.42687" fill="#FFD200"/>
<path d="M90.2265 14.894H85.54L80.7699 22.6209H80.4348L75.7065 14.894H71.0201L77.907 25.3345L70.4414 36.6947H75.1278L80.3549 28.301H80.7699L86.035 36.6947H90.8052L83.3396 25.5031L90.2265 14.894Z" fill="#1C46F3"/>
<path d="M42.1132 30.8612C41.5276 31.5259 40.8047 32.0535 39.9951 32.407C39.1855 32.7606 38.3089 32.9316 37.4268 32.9079C36.5059 32.9315 35.5902 32.7617 34.7381 32.4094C33.886 32.057 33.1162 31.5297 32.4776 30.8612C31.1662 29.4271 30.4663 27.5319 30.5285 25.5835C30.4668 23.6508 31.166 21.7718 32.4738 20.3557C33.1017 19.67 33.8684 19.128 34.7223 18.7663C35.5761 18.4046 36.497 18.2317 37.423 18.2592C38.311 18.2352 39.1932 18.411 40.0052 18.7736C40.8172 19.1363 41.5387 19.6768 42.117 20.3557C43.3962 21.7163 44.0205 23.4219 44.0205 25.5835C44.0205 27.7452 43.3962 29.4546 42.117 30.8612H42.1132ZM45.056 17.5616C44.084 16.5118 42.9043 15.6788 41.5928 15.1164C40.2813 14.5539 38.8673 14.2745 37.442 14.2961C34.1299 14.2961 32.1122 15.4957 30.9206 16.7184H30.635V14.894H26.5996V43.9999H30.7036V34.4525H30.9053C32.0969 35.6713 34.1147 36.8748 37.4268 36.8748C38.8492 36.9009 40.2614 36.6272 41.5726 36.0715C42.8838 35.5157 44.0652 34.6901 45.0408 33.6477C46.0609 32.5789 46.8609 31.3175 47.3947 29.9361C47.9285 28.5547 48.1856 27.0807 48.1511 25.5989C48.1852 24.1211 47.9278 22.6513 47.3939 21.2743C46.86 19.8974 46.0602 18.6407 45.0408 17.5769" fill="#1C46F3"/>
<path d="M15.8448 30.685C15.2024 31.3583 14.4271 31.8888 13.5689 32.2426C12.7107 32.5964 11.7885 32.7656 10.8615 32.7393C9.96091 32.7608 9.06608 32.5899 8.23596 32.2377C7.40584 31.8856 6.65931 31.3603 6.04558 30.6965C4.75397 29.2516 4.07133 27.3575 4.14207 25.4149C4.14207 23.2724 4.77023 21.5554 6.04558 20.1794C6.6516 19.5027 7.39564 18.9657 8.22681 18.6052C9.05798 18.2447 9.95668 18.0691 10.8615 18.0906C11.7933 18.0635 12.7201 18.2369 13.5801 18.5991C14.4401 18.9613 15.2135 19.5039 15.8486 20.1909C17.2039 21.5669 17.8626 23.2571 17.8626 25.4149C17.895 26.3848 17.7331 27.3512 17.3864 28.2567C17.0398 29.1621 16.5155 29.988 15.8448 30.685V30.685ZM21.9856 32.7662V14.7254H17.893V17.8568H17.7293C16.9108 16.477 15.1596 14.1237 10.7472 14.1237C9.32217 14.1039 7.90874 14.3842 6.59755 14.9466C5.28637 15.5089 4.10637 16.3409 3.13321 17.3892C2.11058 18.4525 1.30722 19.7091 0.76946 21.0866C0.231702 22.4641 -0.0298025 23.9352 3.30773e-05 25.4149C-0.033847 26.8964 0.22313 28.3699 0.756223 29.7511C1.28932 31.1323 2.08803 32.394 3.10656 33.4637C4.08254 34.5055 5.26402 35.3304 6.57523 35.8855C7.88644 36.4405 9.29842 36.7136 10.7206 36.6871C15.9857 36.6871 17.8245 33.502 17.8245 33.502H17.9501C17.9501 35.3839 19.3168 36.5069 21.1023 36.5069H24.0604V32.7508L21.9856 32.7662Z" fill="#1C46F3"/>
<path d="M53.8463 23.7631C53.9966 22.1704 54.7384 20.6936 55.9235 19.6277C57.1085 18.5619 58.6494 17.9856 60.2383 18.014C63.5161 18.014 66.2914 20.0607 66.5008 23.7631H53.8463ZM70.6923 25.6028C70.6923 19.0871 66.832 14.369 60.2383 14.369C54.4288 14.369 49.5786 18.9683 49.5786 25.8673C49.5786 32.5516 53.8501 37.2659 60.4476 37.2659C65.176 37.2659 68.9525 34.7209 70.2774 30.4206H66.0592C65.0351 32.5248 62.8042 33.6746 60.4438 33.6746C56.4198 33.6746 53.8463 31.1718 53.8044 26.9136H70.6923V25.6028Z" fill="#1C46F3"/>
<path d="M104.05 32.8927H99.2337V23.3108H103.76C106.749 23.3108 109.402 24.729 109.402 28.0673C109.402 31.4056 107.08 32.9119 104.05 32.9119V32.8927ZM99.2337 11.2645H103.802C106.501 11.2645 108.492 12.9317 108.492 15.4805C108.492 18.0293 106.589 19.823 103.718 19.823H99.2337V11.2645ZM109.402 21.4098V21.1607C110.453 20.5612 111.322 19.6844 111.914 18.6247C112.506 17.5649 112.8 16.3625 112.764 15.1471C112.764 10.7624 109.528 7.4624 103.844 7.4624H92.3887V11.0537H95.084V33.1035H92.3887V36.6948H104.693C109.505 36.6948 113.78 33.5596 113.78 28.1746C113.81 26.7373 113.41 25.3243 112.633 24.1182C111.856 22.9122 110.737 21.9687 109.421 21.4098" fill="#1C46F3"/>
<path d="M121.444 18.3205H121.154V14.8941H117.073V36.6948H121.181V19.7387H128.772V14.3728H127.249C124.303 14.3728 122.186 16.5 121.44 18.3397" fill="#1C46F3"/>
<path d="M158.867 20.7429C158.867 19.1561 160.359 18.0293 162.723 18.0293C165.171 18.0293 166.911 19.2404 167.292 21.4519H170.935V21.3331C170.929 19.9611 170.507 18.6236 169.724 17.5004C168.247 15.446 165.689 14.3613 162.872 14.3613C158.121 14.3537 154.946 16.9829 154.946 20.6969C154.946 29.4241 167.265 25.2502 167.265 30.5087C167.265 32.3485 165.773 33.5749 162.994 33.5749C160.492 33.5749 158.806 32.2986 158.345 30.16H154.241V30.5701C154.782 34.7861 158.048 37.2544 162.826 37.2544C168.011 37.2544 171.415 34.4143 171.415 30.1944C171.415 21.3025 158.886 25.5185 158.886 20.7582" fill="#1C46F3"/>
<path d="M188.448 12.238C188.448 11.1198 188.006 10.0475 187.221 9.25682C186.436 8.46616 185.37 8.02197 184.26 8.02197H182.109V11.6554H184.34V33.1188C184.341 34.071 184.717 34.9839 185.386 35.6571C186.054 36.3304 186.961 36.7091 187.907 36.7101H191.969V33.1035H188.448V12.238Z" fill="#1C46F3"/>
<path d="M144.667 30.9419C144.023 31.6145 143.247 32.1446 142.388 32.4983C141.529 32.852 140.607 33.0216 139.679 32.9962C138.78 33.0169 137.887 32.8455 137.058 32.4934C136.229 32.1413 135.484 31.6164 134.871 30.9534C133.578 29.5091 132.896 27.6146 132.968 25.6718C132.968 23.5255 133.588 21.8122 134.871 20.4363C135.478 19.7597 136.223 19.2228 137.055 18.8623C137.886 18.5019 138.785 18.3262 139.691 18.3474C140.621 18.3221 141.545 18.4962 142.403 18.8584C143.261 19.2205 144.033 19.7623 144.667 20.4478C146.022 21.8237 146.68 23.514 146.68 25.6718C146.713 26.6413 146.551 27.6075 146.205 28.5129C145.859 29.4183 145.336 30.2443 144.667 30.9419V30.9419ZM150.807 33.023V14.9823H146.688V18.1136H146.528C145.706 16.73 143.955 14.3805 139.546 14.3805C138.121 14.3603 136.707 14.6404 135.396 15.2028C134.085 15.7652 132.905 16.5974 131.932 17.646C130.91 18.7105 130.107 19.9687 129.571 21.3477C129.035 22.7267 128.777 24.1991 128.81 25.6795C128.775 27.1611 129.031 28.6351 129.564 30.0165C130.098 31.3979 130.897 32.6594 131.917 33.7283C132.892 34.7713 134.073 35.5973 135.385 36.1531C136.696 36.7089 138.108 36.9822 139.531 36.9554C144.796 36.9554 146.635 33.7666 146.635 33.7666H146.757C146.757 35.6485 148.127 36.7753 149.909 36.7753H152.855V33.0192L150.807 33.023Z" fill="#1C46F3"/>
<path d="M174.696 18.4853V36.6947H178.804V14.894H174.62L174.696 18.4853Z" fill="#1C46F3"/>
<path d="M176.771 6.86062C176.412 6.85076 176.055 6.91415 175.72 7.04697C175.386 7.1798 175.082 7.37931 174.826 7.63352C174.571 7.88773 174.369 8.19138 174.232 8.5262C174.096 8.86103 174.029 9.22012 174.034 9.58187C174.02 9.95521 174.081 10.3275 174.214 10.6765C174.346 11.0255 174.547 11.3441 174.805 11.6131C175.062 11.8821 175.371 12.0961 175.712 12.2423C176.054 12.3885 176.421 12.4638 176.792 12.4638C177.163 12.4638 177.531 12.3885 177.872 12.2423C178.214 12.0961 178.522 11.8821 178.78 11.6131C179.037 11.3441 179.238 11.0255 179.371 10.6765C179.503 10.3275 179.564 9.95521 179.55 9.58187C179.552 9.21785 179.481 8.85723 179.341 8.52164C179.201 8.18606 178.995 7.88244 178.735 7.629C178.476 7.37556 178.168 7.17754 177.83 7.04682C177.493 6.9161 177.133 6.85537 176.771 6.86828" fill="#1C46F3"/>
</g>
<defs>
<clipPath id="clip0_592_19201">
<rect width="217" height="44" fill="white"/>
</clipPath>
</defs>
</svg>
