<?xml version="1.0" encoding="utf-8"?>
<!-- Generator: Adobe Illustrator 19.0.0, SVG Export Plug-In . SVG Version: 6.00 Build 0)  -->
<svg version="1.1" id="ccbill-logo" xmlns="http://www.w3.org/2000/svg" xmlns:xlink="http://www.w3.org/1999/xlink" x="0px"
	 y="0px" viewBox="-74 183.2 100 69.5" style="enable-background:new -74 183.2 100 69.5;" xml:space="preserve">
<style type="text/css">
	.st0{fill:#0072B7;}
</style>
<g id="CCBill_logo">
	<path class="st0" d="M25.3,230.1c-0.8,0-1.4-0.3-1.8-0.9c-0.2-0.3-0.3-1-0.4-2v-23.5h-1.8l-5.1,2l0.5,1.4c0.1,0,0.2,0,0.3,0
		c0.8,0,1.5,0.7,1.5,1.6c0,0.1,0,0.1,0,0.2v18.2c0,1-0.2,1.7-0.4,2c-0.4,0.6-1,0.9-1.8,0.9h-0.2v1.3h9.2v-1.3L25.3,230.1L25.3,230.1
		z M13.3,229.2c-0.2-0.3-0.3-1-0.4-2v-23.5h-1.8l-5.1,2l0.5,1.4c0.1,0,0.2,0,0.3,0c0.8,0,1.5,0.7,1.5,1.6c0,0.1,0,0.1,0,0.2v18.2
		c0,1-0.2,1.7-0.4,2c-0.4,0.6-1,0.9-1.8,0.9H6v1.3h9.2v-1.3h-0.2C14.2,230.1,13.6,229.8,13.3,229.2z M0.4,210.3c1.2,0,2.2-1,2.2-2.2
		s-1-2.2-2.2-2.2s-2.2,1-2.2,2.2C-1.8,209.3-0.8,210.3,0.4,210.3z M3,229.2c-0.2-0.3-0.3-1-0.4-2v-14.2H1l-5.1,2l0.5,1.4
		c0.1,0,0.2,0,0.3,0c0.8,0,1.5,0.7,1.5,1.6c0,0.1,0,0.1,0,0.2v8.9c0,1-0.2,1.7-0.4,2c-0.4,0.6-1,0.9-1.8,0.9h-0.2v1.3h9v-1.3H4.8
		C3.9,230.1,3.3,229.8,3,229.2z M-7.7,214.6c-1.1-1.2-2.9-2.2-5.2-2.7c-0.2,0-0.5-0.1-0.8-0.2c1.1-0.5,2.1-1.3,2.8-2.3
		c0.8-1.2,1.3-2.4,1.3-3.7c0-1.9-0.7-3.7-2-4.8c-0.9-0.8-2.5-1.6-4.4-2c-3.4-0.6-6.2-0.6-6.7-0.6c-0.2,0-2.2,0-2.5,0h-8.1v1.4
		c0.7,0,2.9,0.2,2.9,3.4l0,9l-0.1,12c0,2.1-0.2,3.4-0.5,4.1c-0.6,1-1.5,1.3-2.8,1.3h-1.7l0.2,2.1h15.8c3.7,0,6.5-0.4,8.3-1.2
		s3.3-2.1,4.3-3.8s1.6-3.6,1.6-5.5C-5.2,218.5-6.1,216.3-7.7,214.6z M-25.4,200.4h2.7c1.8,0,3.4,0.3,4.6,0.8
		c1.2,0.5,2.1,1.2,2.7,2.1c0.5,0.9,0.8,1.8,0.8,2.8c0,1.5-0.6,2.7-1.8,3.7c-1.2,1-3,1.5-5.3,1.5c-0.7,0-3,0-3.7-0.1L-25.4,200.4
		C-25.3,200.4-25.4,200.4-25.4,200.4z M-13.6,227.2c-1.5,1.5-3.7,2.2-6.6,2.2c-1.7,0-3.6-0.2-5.4-0.7v-15.4c0.4-0.1,0.9-0.1,1.6-0.2
		c0.7,0,1.6,0,2.6,0c2.3,0,4.2,0.4,5.7,1.2c1.5,0.8,2.6,1.8,3.3,3.1c0.7,1.3,1,2.7,1,4.2C-11.3,223.7-12.1,225.7-13.6,227.2z"/>
	<path class="st0" d="M-39,244.6c-1.8,1-4.1,1.5-6.5,1.5c-2.7,0-5.1-0.6-7.2-1.8c-2.1-1.2-3.7-3-4.7-5.3c-0.5-1.1-0.9-2.3-1.1-3.6
		c-0.2-1.4-0.4-2.9-0.4-4.5c0-2.1,0.2-4,0.5-5.8c1,0.1,2.1,0.2,3.2,0.2c3.4,0,6.5-0.8,9-2.3c2.1-1.3,4-3.3,5.7-5.9l-1.8-1.2
		c-1.7,2-3.2,3.4-4.6,4.1c-1.8,1-4.1,1.5-6.5,1.5c-1.3,0-2.6-0.2-3.8-0.5c1.1-2.4,2.6-4.3,4.4-5.4c1.9-1.2,4.1-1.7,6.4-1.7
		c2.8,0,5.3,0.8,7.3,2.4c1.8,1.4,3.3,3.7,4.4,6.8l0.1,0.2h2.1l-0.9-12.6h-1.5c0,0-0.4,2.6-2.1,2.6c-0.3,0-0.6-0.1-1.5-0.6
		c-2.6-1.3-5.4-2-8-2c-3.5,0-6.7,0.9-9.7,2.6c-2.3,1.3-4.2,3.2-5.8,5.4c-1.4-1.1-2.4-2.5-3.2-4.2c-0.5-1.1-0.9-2.3-1.1-3.6
		c-0.2-1.4-0.4-2.9-0.4-4.5c0-2.9,0.3-5.6,0.9-7.8c0.2-0.7,0.4-1.3,0.7-1.9c1.1-2.5,2.6-4.4,4.5-5.5c1.9-1.2,4.1-1.7,6.4-1.7
		c2.8,0,5.3,0.8,7.3,2.4c1.8,1.4,3.3,3.7,4.4,6.8l0.1,0.2h2.1l-0.9-12.6h-1.5c0,0-0.4,2.6-2.1,2.6c-0.3,0-0.6-0.1-1.5-0.6
		c-2.6-1.3-5.4-2-8-2c-3.5,0-6.7,0.9-9.7,2.6c-2.9,1.7-5.3,4.2-6.9,7.3c-1.7,3.1-2.5,6.6-2.5,10.3c0,4.6,1.3,8.7,3.8,12.1
		c1.5,2,3.3,3.6,5.4,4.7c-0.9,2.4-1.3,5-1.3,7.7c0,4.6,1.3,8.7,3.8,12.1c3.4,4.6,8.3,6.9,14.6,6.9c3.4,0,6.5-0.8,9-2.3
		c2.1-1.3,4-3.3,5.7-5.9l-1.8-1.2C-36.1,242.4-37.6,243.8-39,244.6z"/>
</g>
</svg>
