<?xml version="1.0" encoding="utf-8"?>
<!-- Generator: Adobe Illustrator 19.0.0, SVG Export Plug-In . SVG Version: 6.00 Build 0)  -->
<svg version="1.1" id="Layer_1" xmlns="http://www.w3.org/2000/svg" xmlns:xlink="http://www.w3.org/1999/xlink" x="0px" y="0px"
	 viewBox="-75 251 1080 260" style="enable-background:new -75 251 1080 260;" xml:space="preserve">
<style type="text/css">
	.st0{fill:#002856;}
</style>
<g>
	<path class="st0" d="M989.4,338.8l-3.1,36.6h-15c-23.9,0-36.3,19.1-36.3,37.5v82.7h-42.2V338.8h40.1l0.9,19.6
		c8.4-13.4,23.1-19.6,41.3-19.6H989.4z"/>
	<path class="st0" d="M696.1,495.6h-42.3v-82.9c0-17.4-1.6-39.2-25.9-39.2c-23.5,0-32.9,17-32.9,36.7v85.3h-42.3V338.8H592l0.9,20
		c8.4-13.4,24.1-23.9,47.2-23.9c42.7,0,56.1,30.5,56.1,62.1L696.1,495.6z"/>
	<path class="st0" d="M534.2,459l-3,35.7c-9.8,2.6-19.9,3.9-30.1,3.7c-39.9,0-51.5-18.3-51.5-55.1V294.6H492v44.2h42.1l-2.9,36.6
		H492V440c0,14.8,4,22.7,19.2,22.7C519,462.8,526.8,461.5,534.2,459z"/>
	<path class="st0" d="M435.8,338.8l-3.3,36.6H421c-23.8,0-35.7,19.1-35.7,37.5v82.7H343V338.8h40l0.8,19.6
		c8.5-13.3,23.2-19.6,41.4-19.6H435.8z"/>
	<path class="st0" d="M151.9,478.2c-28.7,15.4-57.4,24.2-95.3,23.1c-70.2-2.1-120.9-45.8-120.9-119.4c0-73.3,51.2-120.2,121-121.3
		c35.4-0.5,67,8.4,91.8,30.3L118.6,321c-15.3-13.1-37.8-20.7-64.8-19.5c-43.9,2-70.4,34-71,77.8c-0.6,47.5,28.6,80.3,74.2,81.5
		c21.5,0.5,36.8-2.3,50.1-8.3V404H59.7l3.2-39.9h88.9L151.9,478.2z"/>
	<path class="st0" d="M873.9,432.2H757.8c3.3,20,19.1,32.1,38.7,32.7c19.1,0.5,29.7-5.2,43.7-19.4l27.6,20.9
		c-19.6,24.2-43.2,33-70.1,33c-47.2,0-82.5-33-82.5-82.2S750.4,335,796,335c50.3,0,77.8,30.5,77.8,84.5L873.9,432.2z M831.5,399.3
		c-1.3-19.8-16.1-32.3-36.6-31.5c-20.4,0.8-34.3,14.2-37.1,31.5H831.5z"/>
	<path class="st0" d="M316.3,392.9v102.7h-37.4l-0.9-15.5c-11.4,14.2-30,19.3-49.2,19.3c-28.8,0-56-14.2-56.6-47.3
		c-0.8-52,58.6-55.7,95.9-55.7h7.5v-2.1c0-17.2-11.4-26.5-32.8-26.5c-15.6,0.1-30.5,6-41.9,16.7l-24.4-24.8
		c19.6-16.3,44.4-25.1,69.8-24.7C294.9,335,316.3,357.4,316.3,392.9z M275.6,427.2h-5.9c-20,0-55.2,1-55.1,22
		c0.2,29.6,61,20.1,61-15.5V427.2z"/>
	<path class="st0" d="M956.4,477.3c0.3-9.5,8.2-16.9,17.6-16.6c9.5,0.3,16.9,8.2,16.6,17.6c-0.3,9.3-7.9,16.6-17.1,16.6
		c-9.5,0-17.1-7.7-17.1-17.1C956.4,477.7,956.4,477.5,956.4,477.3z M973.5,498.5c11.6-0.2,21-9.7,20.8-21.4
		c-0.2-11.6-9.7-21-21.4-20.8c-11.5,0.2-20.8,9.5-20.8,21c-0.1,11.6,9.3,21.1,20.9,21.2C973.2,498.5,973.4,498.5,973.5,498.5
		L973.5,498.5z M969,479h4.3l6.4,10.5h4.1l-6.8-10.7c3.6-0.4,6.2-2.4,6.2-6.7c0-4.8-2.8-6.9-8.6-6.9h-9.2v24.3h3.7L969,479z
		 M969,475.9v-7.5h5c2.6,0,5.3,0.5,5.3,3.6c0,3.7-2.8,4-5.9,4L969,475.9z"/>
</g>
</svg>
