<?xml version="1.0" encoding="utf-8"?>
<!-- Generator: Adobe Illustrator 19.0.0, SVG Export Plug-In . SVG Version: 6.00 Build 0)  -->
<svg version="1.1" id="Layer_1" xmlns="http://www.w3.org/2000/svg" xmlns:xlink="http://www.w3.org/1999/xlink" x="0px" y="0px"
	 viewBox="1085 261 180 52" style="enable-background:new 1085 261 180 52;" xml:space="preserve">
<style type="text/css">
	.st0{fill:#1D3C6D;}
	.st1{fill:#E32726;}
</style>
<g>
	<path class="st0" d="M1165.2,286c0-1.7,0-3.3,0-5c-1.4,0-2.8,0-4.3,0c0-1.8,0-3.6,0-5.4c-1.9,0-3.8,0-5.6,0v5.4h-2.3
		c0,1.7,0,3.3,0,5h2.3v0h0c0,1.5,0,3,0,4.5h0v0.4l0,0.3c0,0.9,0,1.8,0,2.6c0,2.4,0.9,4.9,2.9,6.3c1.8,1.3,4,1.5,6.1,1.5
		c-1.7-1.8-2.8-4.4-3.2-6.6l0-0.1l0-0.1c-0.1-0.7-0.1-1.3-0.1-2c0-0.2,0-0.3,0-0.5c0-0.4,0-0.9,0-1.3c0-1.7,0-3.4,0-5.1
		C1162.4,286,1163.8,286,1165.2,286 M1151.9,277.2c0-1.7,0-3.3,0-5c-2.8-0.5-6-0.3-8.2,1.6c-2,1.8-2.4,4.6-2.3,7.2h-2.4
		c0,1.7,0,3.3,0,5h2.1l0.4,0v0h0v2.7h0c0,4.1,0,8.1,0,12.2h2.6c1,0,2.1,0,3.1,0c0-4.1,0-8.2,0-12.4V286h3.8c0-1.7,0-3.3,0-5h-3.8
		c0.1-1.1-0.1-2.5,0.8-3.3C1149.1,276.8,1150.6,277.1,1151.9,277.2 M1131.2,300.9h2.5c0.5,0,1,0,1.4,0h1.6c0-4.3,0-8.5,0-12.8
		c0-2.5-1-5.3-3.4-6.4c-3.4-1.7-7.4-1.3-11-0.7c0,1.8,0,3.6,0,5.4c2.3-0.5,4.9-1,7.2-0.2c1.1,0.4,1.5,1.5,1.6,2.5
		c-1.6-0.2-3.3-0.6-4.9-0.3c-1.9,0.2-3.9,1.2-4.9,2.8c-1.8,2.6-1.3,6.6,1.4,8.5c2.5,1.9,6,1.7,8.5,0
		C1131.2,300.1,1131.2,300.7,1131.2,300.9 M1130.9,296.6c-1.4,0.4-3.2,0.9-4.5-0.1c-1.2-0.9-1.1-2.9,0.3-3.6
		c1.3-0.7,2.9-0.5,4.3-0.2C1131.1,294.1,1131.1,295.4,1130.9,296.6 M1101.9,274c2.3,0,4.6,0,6.8,0c-3.3,4.5-6.6,9-10,13.5
		c3,4.5,5.9,9,9,13.4c-2.4,0-4.7,0-7.1,0c-2.6-4-5.3-8-7.9-12c0,4,0,8,0,12c-2,0-4.1,0-6.1,0c0-9,0-18,0-26.9c2,0,4.1,0,6.1,0
		c0,4.2,0,8.5,0,12.7C1095.8,282.5,1098.9,278.2,1101.9,274 M1109.2,281.1c1.9,0,3.8,0,5.8,0c0,1.3,0,2.5,0,3.8
		c0.9-2.1,2.9-3.5,5.2-3.8c0,1.9,0,3.8,0,5.6c-2.5,0.3-5,2.1-5.1,4.8c-0.1,3.1,0,6.3,0,9.4c-1.9,0-3.9,0-5.8,0
		C1109.2,294.3,1109.2,287.7,1109.2,281.1"/>
	<g>
		<path class="st1" d="M1211.5,296.9c-0.8,0.3-1,0.5-1.9,0.8c-1,0.3-2.1,0.3-3.1,0c-3.1-1.3-1.1-5.9-1.1-5.9
			c12.5-3.1,10.8-9.8,7.4-10.1c-2.1,0-9.6,0.3-13.2,9c-0.5,1.3-3.9,10.5,3.7,11.1c1.6,0,3.4-0.2,5-1c1.4-0.8,2.6-1.8,3.5-3.1
			C1212.6,296.3,1211.5,296.9,1211.5,296.9 M1209.7,284c1,0.3-1.4,5.1-1.4,5.1c-1,0.3-1.9,0.6-2.6,0.6
			C1206,289.2,1207.8,283.1,1209.7,284 M1240.8,298.7c-0.2-0.2-0.5-0.2-0.6-0.3c-1-0.6-0.2-2.4,0-3.4l2.9-10.3
			c0.2-0.6,1.3-4-3.2-3.4c-3.9,0.6-6.6,3.1-6.6,3.1c0.3-1,0.6-2.4,0-2.7c-0.8-0.3-5.5,1.1-6.6,2.1c-0.3,0-0.8,0.5-0.3,1
			c0.5,0.6,0.6,1.1,0.3,2.3c-0.6,1.9-2.6,8.7-3.1,10c-0.5,1.3-1.1,3.7,0,4.5c0.8,0.6,4.2-0.8,4.7-1.1c0.5-0.2,1-0.5,1.1-0.6
			c0.6-0.6-0.3-1,0.6-4.3c0-0.2,1.1-3.5,1.9-6.4c0.6-2.4,2.9-3.5,3.7-3.7c1.3-0.2,1,1,0.8,1.8c-1.1,3.5-2.4,8.8-2.9,10.1
			c-0.5,1.3-1.3,3.9,0,4.3c1.1,0.8,6.3-1.4,6.8-1.8C1241.2,299,1241.2,298.7,1240.8,298.7"/>
		<path class="st1" d="M1221.1,298.7c-0.3-0.2-0.5-0.2-0.6-0.3c-1-0.6-0.3-2.4,0-3.4l3.1-10.3c0.2-1.1,0.8-2.6,0-3.1
			c-1-0.3-5.6,1.1-6.8,2.1c-0.2,0-0.6,0.5-0.2,1c0.5,0.6,0.5,1.1,0.2,2.3c-0.5,1.9-2.7,8.8-3.2,10.1c-0.5,1.3-1.1,3.9,0.3,4.3
			c1.1,0.8,5.9-1.3,6.6-1.8C1221.6,299.2,1221.6,298.7,1221.1,298.7 M1220.2,279.2c0.3,0.6,3.2-0.6,4.7-1.4c0.2-0.2,0.8-0.6,1-1.1
			c0.3-1.1,0.5-1.6,0.6-2.4c0.2-0.3,0.2-0.8-0.3-1c-0.6-0.2-4.5,0.3-5.5,1.9C1220.3,275.8,1219.2,278.9,1220.2,279.2 M1263.3,290.5
			c-0.5-1.8-3.4-2.3-4.5-1.3c-0.6,0.6-1,1.9-0.8,2.3c2.7-0.8,3.2,1.6,2.7,2.6c-1,1.4-1.3,1.9-2.6,1.9h-8.5c-0.2-0.2-0.3-0.3,0-0.6
			c0.5-0.6,8.8-12.1,9.2-12.5c0.2-0.3,0.6-1.1-0.5-1.1h-9.3c-1,0-1.4,0.3-2.3,1.1c-0.6,0.8-1.4,3.2-1.9,4.8c0,0,0,0.6,1-0.2
			c0.2-0.2,0.5-0.8,1-0.8h5.6c1.8,0-7.6,8.8-10.5,13.5c-0.5,0.8,0.3,0.8,0.8,0.8h12.2c3.1,0,2.6,0.5,4.2-1.8
			C1259.1,299.2,1264.1,292.7,1263.3,290.5 M1196.1,295.9l3.4-13c2.3-7.9,3.5-8.2,4.3-9h-5.3c-1.9,0-3.4,2.7-3.7,4.5l-2.3,8.2h-4.8
			c0,0,2.9-10.5,3.2-11.6c0.2-0.5,0.2-1.1-0.8-1.1c-0.2,0-10.3-0.3-13.5,0.8c-1.4,0.5-3.5,1.8-4.2,3.7c-0.5,1.1-1.1,3.2,0.3,7.1
			c0.2,0.5,0.5,0.8,0.6,1c0.5,0.3,4.7-0.3,4.5-0.3c0.3,0,0.5-0.2,0.2-0.8c-0.3-0.8-1.3-2.3-1.4-3.7c-0.6-5.6,3.4-6.4,4-6.6
			c0.9-0.2,1.8-0.2,2.7,0c0.3,0,1.1,0.2,1.3,0.5c0.3,0.6-0.2,1.8-0.5,3.1c-0.3,1-3.1,10.9-3.9,13.7c-0.5,2.1-2.6,6.6-4.7,7.2
			c-0.5,0.2-1.1,0.2-1.8,0c-0.6-0.2-1.3-0.5-1.8-0.8c-1.3-1.3-2.1-3.9-2.3-5.8c-0.2-2.4,0.3-4.2-0.2-4.2c-0.8,0-3.6,1.1-4.8,1.9
			c0,0,0,0,0,0c-0.5,0.3-0.5,0.4-0.5,0.4c0,0,0,0-0.1,0.1c-0.3,0.5-0.3,2.3-0.1,3.4c0.5,2.4,1.8,5.1,3.7,6.4
			c5.1,3.5,14.1-2.9,15.1-3.5c1.4-1.3,2.4-3.1,2.7-4.3c0.5-1.6,1.3-4.3,1.3-4.3h4.8c0,0-1.9,7.2-2.4,9c-0.5,1.4-0.8,3.9,0.5,3.7
			c4.8,0,6.8-1.8,6.9-1.9s0.2-0.5,0-0.6C1196.5,298.7,1195.4,297.5,1196.1,295.9"/>
	</g>
</g>
</svg>
