<svg xmlns="http://www.w3.org/2000/svg" xmlns:xlink="http://www.w3.org/1999/xlink" viewBox="0 0 131 73.03"><defs><style>.cls-1{fill:none;}.cls-2{clip-path:url(#clip-path);}.cls-3{fill:#fff;}.cls-4{fill:#c7d200;}.cls-5{fill:#31ad76;}</style><clipPath id="clip-path" transform="translate(-390 -3592.13)"><rect class="cls-1" width="1920" height="3816.91"/></clipPath></defs><g id="Layer_2" data-name="Layer 2"><g id="Layer_1-2" data-name="Layer 1"><g class="cls-2"><path class="cls-3" d="M485.92,3649.82h4.37l.12,1.62a5.32,5.32,0,0,1,1.92-1.43,6.07,6.07,0,0,1,2.48-.53,5.49,5.49,0,0,1,4.07,1.51,6.16,6.16,0,0,1,1.5,4.5v9.17h-4.56v-8.54a2.93,2.93,0,0,0-.61-2,2.15,2.15,0,0,0-1.73-.73,3.1,3.1,0,0,0-1.33.27,2.76,2.76,0,0,0-1.51,1.74,3.94,3.94,0,0,0-.19,1.25v8h-4.53Zm-17.77,0h4.36l.13,1.62a5.19,5.19,0,0,1,1.91-1.43,6.09,6.09,0,0,1,2.49-.53,5.46,5.46,0,0,1,4.06,1.51,6.16,6.16,0,0,1,1.5,4.5v9.17h-4.55v-8.54a2.93,2.93,0,0,0-.62-2,2.11,2.11,0,0,0-1.72-.73,3.07,3.07,0,0,0-1.33.27,2.86,2.86,0,0,0-.95.71,3.14,3.14,0,0,0-.57,1,3.94,3.94,0,0,0-.19,1.25v8h-4.52Zm-7.72,8.29c-.1,0-.3-.05-.6-.08a9.87,9.87,0,0,0-1-.05,5,5,0,0,0-2.69.54,1.73,1.73,0,0,0-.79,1.52c0,1.22.74,1.83,2.21,1.83a3.18,3.18,0,0,0,1.06-.17,2.8,2.8,0,0,0,.92-.49,2.53,2.53,0,0,0,.65-.79,2.33,2.33,0,0,0,.25-1.11Zm0,5.16a4.94,4.94,0,0,1-1.91,1.36,6.85,6.85,0,0,1-2.58.47,6.6,6.6,0,0,1-1.66-.22,5,5,0,0,1-1.61-.74,4.16,4.16,0,0,1-1.24-1.41,4.61,4.61,0,0,1-.49-2.22,4.91,4.91,0,0,1,.53-2.3,4.79,4.79,0,0,1,1.43-1.7,6.69,6.69,0,0,1,2.17-1,9.76,9.76,0,0,1,2.71-.35l1.59,0a6.88,6.88,0,0,1,1.06.09V3655a1.86,1.86,0,0,0-.24-1,2,2,0,0,0-.63-.66,2.43,2.43,0,0,0-.9-.38,5.32,5.32,0,0,0-1.07-.11,7.23,7.23,0,0,0-2.52.38,8.31,8.31,0,0,0-1.69.85l-1.87-2.78c.32-.23.68-.46,1.08-.7A8.25,8.25,0,0,1,454,3650a12.2,12.2,0,0,1,1.85-.46,15,15,0,0,1,2.36-.17,6.34,6.34,0,0,1,5,1.82,7.11,7.11,0,0,1,1.61,4.88v8.64h-4.27Zm-35.89-13.45h4.36l.16,1.65a5.57,5.57,0,0,1,1.77-1.42,5.34,5.34,0,0,1,2.53-.57,5.85,5.85,0,0,1,1.58.19,5,5,0,0,1,1.22.49,5.41,5.41,0,0,1,.92.66,5.06,5.06,0,0,1,.64.71A6.45,6.45,0,0,1,440,3650a7.34,7.34,0,0,1,2.74-.53,5.63,5.63,0,0,1,4.35,1.61,6.21,6.21,0,0,1,1.5,4.4v9.17H444v-8.45a3.19,3.19,0,0,0-.59-2.05,2.09,2.09,0,0,0-1.75-.73,2.65,2.65,0,0,0-2.12.92,3.44,3.44,0,0,0-.79,2.34v8h-4.4v-8.45a3.19,3.19,0,0,0-.59-2.05,2.09,2.09,0,0,0-1.75-.73,2.65,2.65,0,0,0-2.1.92,3.4,3.4,0,0,0-.81,2.34v8h-4.55Zm-6.9,5.86a2.61,2.61,0,0,0-.19-1,2.86,2.86,0,0,0-.57-.9,3.08,3.08,0,0,0-.95-.68,3.14,3.14,0,0,0-1.36-.27,3.38,3.38,0,0,0-1.39.27,3.16,3.16,0,0,0-1,.68,2.81,2.81,0,0,0-.61.9,2.63,2.63,0,0,0-.2,1Zm4,7.36c-.17.11-.43.28-.76.53a7.2,7.2,0,0,1-1.32.71,11.92,11.92,0,0,1-1.91.62,11.31,11.31,0,0,1-2.53.26,9.42,9.42,0,0,1-3.41-.58,7.25,7.25,0,0,1-2.58-1.63,6.88,6.88,0,0,1-1.62-2.51,9.39,9.39,0,0,1-.55-3.25,8.81,8.81,0,0,1,.52-3,7.46,7.46,0,0,1,1.51-2.52,7.15,7.15,0,0,1,2.4-1.72,7.72,7.72,0,0,1,3.22-.65,7.47,7.47,0,0,1,3.17.63,6.51,6.51,0,0,1,2.29,1.76,7.7,7.7,0,0,1,1.41,2.68,12.07,12.07,0,0,1,.47,3.44v.76H411.38a2.81,2.81,0,0,0,1.06,2.1,4.14,4.14,0,0,0,2.83.9,6.78,6.78,0,0,0,2.88-.52,10.75,10.75,0,0,0,1.61-.9ZM390,3643.56h4.78v16.86h10.08v4.24H390Z" transform="translate(-390 -3592.13)"/><path class="cls-3" d="M463.78,3637.21a4.19,4.19,0,0,1-.83,1.42,3.77,3.77,0,0,1-1.3,1,4.1,4.1,0,0,1-1.7.35,4.05,4.05,0,0,1-1.69-.35,3.8,3.8,0,0,1-1.31-1,4.54,4.54,0,0,1-.83-1.42,5.43,5.43,0,0,1,0-3.5,4.48,4.48,0,0,1,.83-1.43,4.16,4.16,0,0,1,4.7-1,3.9,3.9,0,0,1,1.3,1,4.14,4.14,0,0,1,.83,1.43,5.25,5.25,0,0,1,0,3.5m.68-3.77a5,5,0,0,0-1-1.64,4.61,4.61,0,0,0-1.54-1.1,5,5,0,0,0-3.9,0,4.72,4.72,0,0,0-1.54,1.1,5.17,5.17,0,0,0-1,1.64,5.62,5.62,0,0,0-.37,2,5.54,5.54,0,0,0,.37,2,5.12,5.12,0,0,0,1,1.63,4.69,4.69,0,0,0,1.54,1.09,4.8,4.8,0,0,0,5.44-1.09,5,5,0,0,0,1-1.63,5.34,5.34,0,0,0,.37-2,5.41,5.41,0,0,0-.37-2m-16.59,3.09,2.05-5.09,2.05,5.09Zm2.43-6h-.7l-4,9.83h.77l1.27-3.17h4.62l1.28,3.17h.81Zm-2.83-1.8a2.8,2.8,0,0,1,.69-.54,1.7,1.7,0,0,1,.82-.21,1.57,1.57,0,0,1,.6.11,2.84,2.84,0,0,1,.46.24l.42.23a.9.9,0,0,0,.46.11,1.19,1.19,0,0,0,.54-.12,3.22,3.22,0,0,0,.55-.42l.41.44a2.35,2.35,0,0,1-.68.53,1.7,1.7,0,0,1-.82.21,1.53,1.53,0,0,1-.6-.11l-.45-.24-.42-.24a1,1,0,0,0-.47-.11,1.32,1.32,0,0,0-.56.13,2.14,2.14,0,0,0-.58.42Zm-7.86,14a2.89,2.89,0,0,0,.5.17,2.21,2.21,0,0,0,.66.08c.77,0,1.15-.22,1.15-.66s-.32-.57-1-.57a2.82,2.82,0,0,0-.59.05,3.65,3.65,0,0,0-.62.17l.11-.59c.17-.06.36-.11.55-.16a3.82,3.82,0,0,1,.76-.06,1.81,1.81,0,0,1,.65.1,1.42,1.42,0,0,1,.45.27,1,1,0,0,1,.26.37,1.09,1.09,0,0,1,.08.39,1.07,1.07,0,0,1-.51.95,2.23,2.23,0,0,1-1.24.33,3.33,3.33,0,0,1-.86-.09l-.51-.17Zm5.06-4c-.06.1-.17.25-.33.46a3.51,3.51,0,0,1-.68.62,4.37,4.37,0,0,1-1.06.56,4.57,4.57,0,0,1-1.51.23,4.69,4.69,0,0,1-1.93-.39,4.44,4.44,0,0,1-1.51-1.08,4.86,4.86,0,0,1-1-1.64,5.92,5.92,0,0,1-.34-2,5.81,5.81,0,0,1,.34-2,4.92,4.92,0,0,1,1-1.63,4.49,4.49,0,0,1,1.51-1.1,4.69,4.69,0,0,1,1.93-.4,4.31,4.31,0,0,1,1.51.24,4.37,4.37,0,0,1,1.06.55,3.24,3.24,0,0,1,.68.63c.16.2.27.36.33.45l-.53.37-.28-.37a2.88,2.88,0,0,0-.56-.53,4.43,4.43,0,0,0-.9-.47,3.48,3.48,0,0,0-1.28-.2,3.91,3.91,0,0,0-1.68.34,3.62,3.62,0,0,0-1.26,1,4.1,4.1,0,0,0-.79,1.42,5.64,5.64,0,0,0-.27,1.76,5.38,5.38,0,0,0,.28,1.77,4.27,4.27,0,0,0,.79,1.42,3.56,3.56,0,0,0,1.27,1,4,4,0,0,0,1.71.35,3.23,3.23,0,0,0,1.21-.21,3.9,3.9,0,0,0,.89-.47,3.3,3.3,0,0,0,.57-.52l.3-.38Zm-15.58-2.2,2-5.09,2.05,5.09Zm2.43-6h-.71l-4,9.83h.76l1.27-3.17h4.63l1.28,3.17h.81Zm-6.56,6.78a3.37,3.37,0,0,1-.93,1.34,3.82,3.82,0,0,1-1.45.78,6.17,6.17,0,0,1-1.89.26h-2.12v-8.5h2a6.94,6.94,0,0,1,2,.26,3.83,3.83,0,0,1,1.48.79,3.42,3.42,0,0,1,.94,1.32,5.41,5.41,0,0,1,0,3.75m.67-4.09a4.12,4.12,0,0,0-1.13-1.52,4.77,4.77,0,0,0-1.74-.88,7.75,7.75,0,0,0-2.22-.29h-2.68v9.83h2.68a8.12,8.12,0,0,0,2.22-.29,4.78,4.78,0,0,0,1.74-.89,4.2,4.2,0,0,0,1.13-1.54,5.45,5.45,0,0,0,.41-2.21,5.52,5.52,0,0,0-.41-2.21m-18-2.69h.74l6.3,8.76v-8.76h.7v9.83h-.74l-6.31-8.65v8.65h-.69Zm-10,0h.7v5.54a8.35,8.35,0,0,0,.14,1.55,3.14,3.14,0,0,0,.47,1.22,2.44,2.44,0,0,0,.94.8,3.42,3.42,0,0,0,1.5.29,3.5,3.5,0,0,0,1.51-.29,2.34,2.34,0,0,0,.93-.8,3.32,3.32,0,0,0,.48-1.22,8.38,8.38,0,0,0,.13-1.55v-5.54h.71v5.91a6.93,6.93,0,0,1-.18,1.62,3.5,3.5,0,0,1-.62,1.32,3,3,0,0,1-1.16.89,5.19,5.19,0,0,1-3.59,0,2.91,2.91,0,0,1-1.16-.89,3.36,3.36,0,0,1-.62-1.32,6.93,6.93,0,0,1-.18-1.62Zm-7.62,0h5.89v.66h-5.18v3.71h4.05v.67h-4.05v4.79H390Z" transform="translate(-390 -3592.13)"/><path class="cls-4" d="M512.25,3592.13a.3.3,0,0,0-.3.2c-.67,1.78-1.67,4.46-8,10.69a1,1,0,0,0,.73,1.75.88.88,0,0,0,.67-.28,43.61,43.61,0,0,0,7-8.67,10.61,10.61,0,0,0,1.06-2.67,1.41,1.41,0,0,0-1.13-1" transform="translate(-390 -3592.13)"/><path class="cls-3" d="M519.15,3592.5c.93,0,2.1,1.57,1.8,5.08-.24,2.87-1.75,5.52-2.87,7.44-.31.54-1,.23-1.18,0a1.2,1.2,0,0,1-.24-1.48c3.77-6,2.92-9,2.41-10.84,0-.1,0-.2.08-.2" transform="translate(-390 -3592.13)"/><path class="cls-5" d="M518.37,3608.76a.7.7,0,0,0-.58.31c-.35.46-.82,1.12-1.11,1.52a1.56,1.56,0,0,0-.35.94,1.11,1.11,0,0,0,.43.82.89.89,0,0,0,.71.22.8.8,0,0,0,.5-.32c.39-.52.89-1.24,1.15-1.62a1.35,1.35,0,0,0,.23-.57,1.12,1.12,0,0,0-1-1.3" transform="translate(-390 -3592.13)"/><path class="cls-3" d="M495.45,3594.93a.94.94,0,0,0-.6.23c-.69.55-2.09,1.7-3.13,2.56A.72.72,0,0,0,492,3599a1,1,0,0,0,.73-.25c.79-.66,2.74-2.3,3.12-2.64a.66.66,0,0,0-.41-1.16" transform="translate(-390 -3592.13)"/><path class="cls-4" d="M490.78,3600.64c-.21,0-.36.08-.64.31a96.25,96.25,0,0,0-7.82,7.6,43,43,0,0,0-5,6.85c1.82,3.1,1.89,3.23,2.43,2.38.2-.32.41-.63.61-.94,2.76-4.18,5.6-7.56,12.54-13.89-.8-1-1.25-1.58-1.52-1.9s-.38-.39-.56-.41" transform="translate(-390 -3592.13)"/><path class="cls-3" d="M482.2,3606.35c2.33-2.39,4.37-4.24,6.33-6a1.22,1.22,0,0,0,.49-.94.57.57,0,0,0-.55-.62.9.9,0,0,0-.61.29c-2,1.68-2.5,2.14-4.3,3.82-.37-.95-.62-1.54-.79-1.9s-.46-.47-.85-.1c-2.08,2-3.3,3.28-4,4.12-1,1.14-1,1.58-.89,2.07s.5,1.57.75,2.22c-2.72,3.86-2.77,4.09-2.39,5.06,1,2.15,1.12,2.37,1.59,1.59.11-.19.21-.39.32-.57a43,43,0,0,1,5-6.85c-.52-1-.79-1.43-.12-2.2" transform="translate(-390 -3592.13)"/><path class="cls-4" d="M487.7,3626.71a69.7,69.7,0,0,1,7.3-8.83c2.49-2.66,2.49-2.66,9.09-9.15-1.06-1-1.69-1.61-2.09-2a1.44,1.44,0,0,0-1-.52,1,1,0,0,0-.76.3l-.67.64a109.08,109.08,0,0,0-13.19,14.33c-1.54,2.17-1.6,2.26-.89,3s1.52,1.53,2.18,2.17" transform="translate(-390 -3592.13)"/><path class="cls-5" d="M515.38,3598.5a.54.54,0,0,0-.45.3,44.14,44.14,0,0,1-6.53,8.55c-1,.89-2-.8-2.93,0l-1.37,1.38c-6.61,6.49-6.61,6.49-9.1,9.15a69.7,69.7,0,0,0-7.3,8.83c-1.19,1.92-.8,2.33-.5,2.65,2.13,1.9,2.25,1.88,2.65,1.33l.43-.62a78.05,78.05,0,0,1,9.3-10.59l2.05-2.05A137.86,137.86,0,0,0,513.82,3604a19.73,19.73,0,0,0,2.64-4.38c.21-.52-.36-1.07-1.08-1.07" transform="translate(-390 -3592.13)"/><path class="cls-4" d="M498.47,3632.42a42.19,42.19,0,0,0-4.91,6.58s1.25.89,2.09,1.46a.69.69,0,0,0,1-.18,46.81,46.81,0,0,1,3.94-4.84.79.79,0,0,0-.06-1.17l-2.06-1.85" transform="translate(-390 -3592.13)"/><path class="cls-5" d="M504.88,3594.6a.78.78,0,0,0-.55.22c-6,6-6.17,5.87-6.89,5.16a.93.93,0,0,0-1.27,0l-3.31,2.94c-6.94,6.33-9.79,9.71-12.54,13.89,2.26,3.11,2.29,3.15,2.87,2.34l.55-.76c3.24-4.46,5.91-7.47,13.07-14.11l2.37-2.18c1.39-1.27,5.64-5.15,6.43-6.2a.85.85,0,0,0-.73-1.33" transform="translate(-390 -3592.13)"/><path class="cls-3" d="M496.81,3604.31c-7.16,6.64-9.83,9.65-13.07,14.11.79.94,1.85,2.17,2.67,3.08a109.08,109.08,0,0,1,13.19-14.33C498.76,3606.32,497.64,3605.18,496.81,3604.31Z" transform="translate(-390 -3592.13)"/><path class="cls-5" d="M512.84,3618.41c2.35-2.41,2.25-2.73,1.6-3.44l-2.15-2.36c-6.08,6.93-13.74,12.45-19,20-.9,1.29-1.52,2.24-1.93,3-1.09,1.89-.74,2.16-.21,2.56l1.76,1.23c.25.15.39.09.54-.16l.15-.24a42.19,42.19,0,0,1,4.91-6.58c.7-.78,2.41-2.43,3.17-3.14.78.73,1.67,1.54,2.09,1.91s.88.51,1.35.08c.75-.68,4.46-4.16,5.16-4.88a.93.93,0,0,0,.12-1.27c-.6-.66-1.23-1.37-2-2.21,1.64-1.61,3.06-3,4.48-4.5" transform="translate(-390 -3592.13)"/><path class="cls-3" d="M512.29,3612.61c.36-.41.77-.93,1-1.17.38-.52,0-1.06-.47-1.35a.91.91,0,0,0-1.22.13c-2.77,3.15-7.3,7.81-9.75,10.05a1.07,1.07,0,0,1-1.44,0l-.78-.77a78.05,78.05,0,0,0-9.3,10.59c.89.78,2.07,1.81,3,2.58,5.3-7.59,13-13.11,19-20" transform="translate(-390 -3592.13)"/></g></g></g><script xmlns="" type="text/javascript" src="moz-extension://b4cdfb20-ab1e-4a4a-9043-0096e2940df6/window/testing-library.js"/></svg>