<?xml version="1.0" encoding="utf-8"?>
<!-- Generator: Adobe Illustrator 19.0.0, SVG Export Plug-In . SVG Version: 6.00 Build 0)  -->
<svg version="1.1" id="Layer_1" xmlns="http://www.w3.org/2000/svg" xmlns:xlink="http://www.w3.org/1999/xlink" x="0px" y="0px"
	 viewBox="-74.5 76 131 74" style="enable-background:new -74.5 76 131 74;" xml:space="preserve">
<style type="text/css">
	.st0{fill:#002C4F;}
	.st1{fill:#C7D200;}
	.st2{fill:#31AD76;}
</style>
<g id="Layer_1-2">
	<g>
		<g>
			<path class="st0" d="M21.4,134.2h4.4l0.1,1.6c0.5-0.6,1.2-1.1,1.9-1.4c0.8-0.3,1.6-0.5,2.5-0.5c1.5-0.1,3,0.5,4.1,1.5
				c1.1,1.2,1.6,2.9,1.5,4.5v9.2h-4.6v-8.5c0-0.7-0.2-1.4-0.6-2c-0.4-0.5-1.1-0.8-1.7-0.7c-0.5,0-0.9,0.1-1.3,0.3
				c-0.7,0.3-1.3,1-1.5,1.7c-0.1,0.4-0.2,0.8-0.2,1.3v8h-4.5L21.4,134.2z M3.7,134.2H8l0.1,1.6c0.5-0.6,1.2-1.1,1.9-1.4
				c0.8-0.4,1.6-0.5,2.5-0.5c1.5-0.1,3,0.5,4.1,1.5c1.1,1.2,1.6,2.9,1.5,4.5v9.2h-4.5v-8.5c0-0.7-0.2-1.4-0.6-2
				c-0.4-0.5-1.1-0.8-1.7-0.7c-0.5,0-0.9,0.1-1.3,0.3c-0.4,0.2-0.7,0.4-1,0.7c-0.3,0.3-0.4,0.6-0.6,1c-0.1,0.4-0.2,0.8-0.2,1.3v8
				H3.7V134.2z M-4.1,142.5c-0.1,0-0.3-0.1-0.6-0.1c-0.3,0-0.7-0.1-1-0.1c-0.9-0.1-1.9,0.1-2.7,0.5c-0.5,0.3-0.8,0.9-0.8,1.5
				c0,1.2,0.7,1.8,2.2,1.8c0.4,0,0.7-0.1,1.1-0.2c0.3-0.1,0.6-0.3,0.9-0.5c0.3-0.2,0.5-0.5,0.6-0.8c0.2-0.3,0.3-0.7,0.3-1.1
				L-4.1,142.5z M-4.1,147.6c-0.5,0.6-1.2,1.1-1.9,1.4c-0.8,0.3-1.7,0.5-2.6,0.5c-0.6,0-1.1-0.1-1.7-0.2c-0.6-0.1-1.1-0.4-1.6-0.7
				c-0.5-0.4-0.9-0.9-1.2-1.4c-0.3-0.7-0.5-1.5-0.5-2.2c0-0.8,0.2-1.6,0.5-2.3c0.3-0.7,0.8-1.3,1.4-1.7c0.7-0.5,1.4-0.8,2.2-1
				c0.9-0.2,1.8-0.4,2.7-0.4h1.6c0.4,0,0.7,0,1.1,0.1v-0.3c0-0.3-0.1-0.7-0.2-1c-0.2-0.3-0.4-0.5-0.6-0.7c-0.3-0.2-0.6-0.3-0.9-0.4
				c-0.4-0.1-0.7-0.1-1.1-0.1c-0.9,0-1.7,0.1-2.5,0.4c-0.6,0.2-1.2,0.5-1.7,0.9l-1.9-2.8c0.3-0.2,0.7-0.5,1.1-0.7
				c0.5-0.2,0.9-0.4,1.4-0.6c0.6-0.2,1.2-0.4,1.9-0.5c0.8-0.1,1.6-0.2,2.4-0.2c1.9-0.2,3.7,0.5,5,1.8c1.1,1.4,1.7,3.1,1.6,4.9v8.6
				h-4.3L-4.1,147.6z M-40,134.2h4.4l0.2,1.6c0.5-0.6,1.1-1.1,1.8-1.4c0.8-0.4,1.7-0.6,2.5-0.6c0.5,0,1.1,0.1,1.6,0.2
				c0.4,0.1,0.8,0.3,1.2,0.5c0.3,0.2,0.6,0.4,0.9,0.7c0.2,0.2,0.4,0.5,0.6,0.7c0.6-0.7,1.4-1.2,2.3-1.5c0.9-0.4,1.8-0.5,2.7-0.5
				c1.6-0.1,3.2,0.5,4.4,1.6c1.1,1.2,1.6,2.8,1.5,4.4v9.2h-4.6v-8.4c0-0.7-0.2-1.5-0.6-2.1c-0.4-0.5-1.1-0.8-1.8-0.7
				c-0.8,0-1.6,0.3-2.1,0.9c-0.5,0.7-0.8,1.5-0.8,2.3v8h-4.4v-8.4c0-0.7-0.2-1.5-0.6-2.1c-0.4-0.5-1.1-0.8-1.7-0.7
				c-0.8,0-1.6,0.3-2.1,0.9c-0.6,0.7-0.8,1.5-0.8,2.3v8h-4.5L-40,134.2z M-46.9,140c0-0.3-0.1-0.7-0.2-1c-0.1-0.3-0.3-0.6-0.6-0.9
				c-0.3-0.3-0.6-0.5-1-0.7c-0.4-0.2-0.9-0.3-1.4-0.3c-0.5,0-1,0.1-1.4,0.3c-0.4,0.2-0.7,0.4-1,0.7c-0.3,0.3-0.5,0.6-0.6,0.9
				c-0.1,0.3-0.2,0.7-0.2,1H-46.9z M-42.9,147.4c-0.2,0.1-0.4,0.3-0.8,0.5c-0.4,0.3-0.9,0.5-1.3,0.7c-0.6,0.3-1.3,0.5-1.9,0.6
				c-0.8,0.2-1.7,0.3-2.5,0.3c-1.2,0-2.3-0.2-3.4-0.6c-1-0.4-1.8-0.9-2.6-1.6c-0.7-0.7-1.3-1.6-1.6-2.5c-0.4-1-0.6-2.1-0.5-3.3
				c0-1,0.2-2,0.5-3c0.3-0.9,0.8-1.8,1.5-2.5c0.7-0.7,1.5-1.3,2.4-1.7c1-0.4,2.1-0.7,3.2-0.6c1.1,0,2.2,0.2,3.2,0.6
				c0.9,0.4,1.7,1,2.3,1.8c0.6,0.8,1.1,1.7,1.4,2.7c0.3,1.1,0.5,2.3,0.5,3.4v0.8h-10.6c0,0.8,0.4,1.6,1.1,2.1c0.8,0.6,1.8,1,2.8,0.9
				c1,0,2-0.1,2.9-0.5c0.6-0.3,1.1-0.6,1.6-0.9L-42.9,147.4z M-74.5,127.9h4.8v16.9h10.1v4.2h-14.9V127.9z"/>
			<path class="st0" d="M-0.7,121.6c-0.2,0.5-0.5,1-0.8,1.4c-0.4,0.4-0.8,0.8-1.3,1c-0.5,0.2-1.1,0.4-1.7,0.4
				c-0.6,0-1.2-0.1-1.7-0.4c-0.5-0.2-1-0.6-1.3-1c-0.4-0.4-0.6-0.9-0.8-1.4c-0.4-1.1-0.4-2.4,0-3.5c0.2-0.5,0.5-1,0.8-1.4
				c1.2-1.3,3.1-1.7,4.7-1c0.5,0.2,0.9,0.6,1.3,1c0.4,0.4,0.7,0.9,0.8,1.4C-0.3,119.2-0.3,120.4-0.7,121.6 M0,117.8
				c-0.2-0.6-0.6-1.2-1-1.6c-0.4-0.5-1-0.8-1.5-1.1c-1.2-0.5-2.7-0.5-3.9,0c-0.6,0.3-1.1,0.6-1.5,1.1c-0.4,0.5-0.8,1-1,1.6
				c-0.2,0.6-0.4,1.3-0.4,2c0,0.7,0.1,1.4,0.4,2c0.2,0.6,0.6,1.2,1,1.6c0.4,0.5,1,0.8,1.5,1.1c1.9,0.8,4,0.4,5.4-1.1
				c0.4-0.5,0.8-1,1-1.6c0.3-0.6,0.4-1.3,0.4-2C0.3,119.1,0.2,118.4,0,117.8 M-16.6,120.9l2-5.1l2,5.1H-16.6z M-14.2,114.9h-0.7
				l-4,9.8h0.8l1.3-3.2h4.6l1.3,3.2h0.8L-14.2,114.9z M-17,113.1c0.2-0.2,0.4-0.4,0.7-0.5c0.3-0.1,0.5-0.2,0.8-0.2
				c0.2,0,0.4,0,0.6,0.1c0.2,0.1,0.3,0.1,0.5,0.2l0.4,0.2c0.1,0.1,0.3,0.1,0.5,0.1c0.2,0,0.4,0,0.5-0.1c0.2-0.1,0.4-0.3,0.5-0.4
				l0.4,0.4c-0.2,0.2-0.4,0.4-0.7,0.5c-0.3,0.1-0.5,0.2-0.8,0.2c-0.2,0-0.4,0-0.6-0.1l-0.5-0.2l-0.4-0.2c-0.1-0.1-0.3-0.1-0.5-0.1
				c-0.2,0-0.4,0-0.6,0.1c-0.2,0.1-0.4,0.2-0.6,0.4L-17,113.1z M-24.9,127.1c0.2,0.1,0.3,0.1,0.5,0.2c0.2,0.1,0.4,0.1,0.7,0.1
				c0.8,0,1.1-0.2,1.1-0.7s-0.3-0.6-1-0.6c-0.2,0-0.4,0-0.6,0.1c-0.2,0-0.4,0.1-0.6,0.2l0.1-0.6c0.2-0.1,0.4-0.1,0.5-0.2
				c0.3,0,0.5-0.1,0.8-0.1c0.2,0,0.4,0,0.6,0.1c0.2,0.1,0.3,0.2,0.5,0.3c0.1,0.1,0.2,0.2,0.3,0.4c0.1,0.1,0.1,0.3,0.1,0.4
				c0,0.4-0.2,0.7-0.5,0.9c-0.4,0.2-0.8,0.3-1.2,0.3c-0.3,0-0.6,0-0.9-0.1l-0.5-0.2L-24.9,127.1z M-19.8,123.1
				c-0.1,0.1-0.2,0.3-0.3,0.5c-0.2,0.2-0.4,0.4-0.7,0.6c-0.3,0.2-0.7,0.4-1.1,0.6c-0.5,0.2-1,0.2-1.5,0.2c-0.7,0-1.3-0.1-1.9-0.4
				c-0.6-0.2-1.1-0.6-1.5-1.1c-0.4-0.5-0.8-1-1-1.6c-0.2-0.6-0.3-1.3-0.3-2c0-0.7,0.1-1.4,0.3-2c0.2-0.6,0.6-1.2,1-1.6
				c0.4-0.5,0.9-0.8,1.5-1.1c0.6-0.3,1.3-0.4,1.9-0.4c0.5,0,1,0.1,1.5,0.2c0.4,0.1,0.7,0.3,1.1,0.6c0.3,0.2,0.5,0.4,0.7,0.6
				c0.2,0.2,0.3,0.4,0.3,0.4l-0.5,0.4l-0.3-0.4c-0.2-0.2-0.4-0.4-0.6-0.5c-0.3-0.2-0.6-0.3-0.9-0.5c-0.4-0.1-0.8-0.2-1.3-0.2
				c-0.6,0-1.2,0.1-1.7,0.3c-0.5,0.2-0.9,0.6-1.3,1c-0.4,0.4-0.6,0.9-0.8,1.4c-0.2,0.6-0.3,1.2-0.3,1.8c0,0.6,0.1,1.2,0.3,1.8
				c0.2,0.5,0.4,1,0.8,1.4c0.3,0.4,0.8,0.8,1.3,1c0.5,0.2,1.1,0.4,1.7,0.4c0.4,0,0.8-0.1,1.2-0.2c0.3-0.1,0.6-0.3,0.9-0.5
				c0.2-0.2,0.4-0.3,0.6-0.5l0.3-0.4L-19.8,123.1z M-35.4,120.9l2-5.1l2,5.1H-35.4z M-33,114.9h-0.7l-4,9.8h0.8l1.3-3.2h4.6l1.3,3.2
				h0.8L-33,114.9z M-39.5,121.7c-0.2,0.5-0.5,1-0.9,1.3c-0.4,0.4-0.9,0.6-1.5,0.8c-0.6,0.2-1.3,0.3-1.9,0.3h-2.1v-8.5h2
				c0.7,0,1.3,0.1,2,0.3c0.5,0.2,1.1,0.4,1.5,0.8c0.4,0.4,0.7,0.8,0.9,1.3C-39.1,119.1-39.1,120.5-39.5,121.7 M-38.8,117.6
				c-0.3-0.6-0.6-1.1-1.1-1.5c-0.5-0.4-1.1-0.7-1.7-0.9c-0.7-0.2-1.5-0.3-2.2-0.3h-2.7v9.8h2.7c0.7,0,1.5-0.1,2.2-0.3
				c0.6-0.2,1.2-0.5,1.7-0.9c0.5-0.4,0.9-0.9,1.1-1.5c0.3-0.7,0.4-1.5,0.4-2.2C-38.4,119-38.6,118.3-38.8,117.6 M-56.8,114.9h0.7
				l6.3,8.8v-8.8h0.7v9.8h-0.7l-6.3-8.6v8.6h-0.7V114.9z M-66.8,114.9h0.7v5.5c0,0.5,0,1,0.1,1.6c0.1,0.4,0.2,0.9,0.5,1.2
				c0.2,0.3,0.6,0.6,0.9,0.8c0.5,0.2,1,0.3,1.5,0.3c0.5,0,1-0.1,1.5-0.3c0.4-0.2,0.7-0.5,0.9-0.8c0.2-0.4,0.4-0.8,0.5-1.2
				c0.1-0.5,0.1-1,0.1-1.6v-5.5h0.7v5.9c0,0.5-0.1,1.1-0.2,1.6c-0.1,0.5-0.3,0.9-0.6,1.3c-0.3,0.4-0.7,0.7-1.2,0.9
				c-1.2,0.4-2.4,0.4-3.6,0c-0.5-0.2-0.9-0.5-1.2-0.9c-0.3-0.4-0.5-0.8-0.6-1.3c-0.1-0.5-0.2-1.1-0.2-1.6L-66.8,114.9z M-74.5,114.9
				h5.9v0.7h-5.2v3.7h4v0.7h-4v4.8h-0.8L-74.5,114.9z"/>
			<path class="st1" d="M47.8,76.5c-0.1,0-0.3,0.1-0.3,0.2c-0.7,1.8-1.7,4.5-8,10.7c-0.4,0.4-0.5,1-0.1,1.4c0.2,0.2,0.5,0.4,0.8,0.3
				c0.3,0,0.5-0.1,0.7-0.3c2.7-2.6,5-5.5,7-8.7c0.5-0.8,0.8-1.7,1.1-2.7C48.8,77,48.3,76.6,47.8,76.5"/>
			<path class="st0" d="M54.7,76.9c0.9,0,2.1,1.6,1.8,5.1c-0.2,2.9-1.8,5.5-2.9,7.4c-0.3,0.5-1,0.2-1.2,0c-0.4-0.4-0.5-1-0.2-1.5
				c3.8-6,2.9-9,2.4-10.8C54.6,77,54.6,76.9,54.7,76.9"/>
			<path class="st2" d="M53.9,93.1c-0.2,0-0.5,0.1-0.6,0.3c-0.3,0.5-0.8,1.1-1.1,1.5c-0.2,0.3-0.3,0.6-0.3,0.9
				c0,0.3,0.2,0.6,0.4,0.8c0.2,0.2,0.5,0.3,0.7,0.2c0.2,0,0.4-0.2,0.5-0.3c0.4-0.5,0.9-1.2,1.2-1.6c0.1-0.2,0.2-0.4,0.2-0.6
				C55,93.8,54.5,93.2,53.9,93.1C53.9,93.1,53.9,93.1,53.9,93.1"/>
			<path class="st0" d="M31,79.3c-0.2,0-0.4,0.1-0.6,0.2c-0.7,0.6-2.1,1.7-3.1,2.6c-0.3,0.2-0.4,0.7-0.1,1c0.1,0.1,0.3,0.2,0.4,0.3
				c0.3,0,0.5-0.1,0.7-0.3c0.8-0.7,2.7-2.3,3.1-2.6c0.3-0.2,0.3-0.7,0.1-0.9C31.3,79.4,31.1,79.3,31,79.3"/>
			<path class="st1" d="M26.3,85c-0.2,0-0.4,0.1-0.6,0.3c-2.7,2.4-5.4,4.9-7.8,7.6c-1.9,2.1-3.6,4.4-5,6.9c1.8,3.1,1.9,3.2,2.4,2.4
				c0.2-0.3,0.4-0.6,0.6-0.9c2.8-4.2,5.6-7.6,12.5-13.9c-0.8-1-1.3-1.6-1.5-1.9S26.5,85,26.3,85"/>
			<path class="st0" d="M17.7,90.7c2.3-2.4,4.4-4.2,6.3-6c0.3-0.2,0.5-0.6,0.5-0.9c0-0.3-0.2-0.6-0.5-0.6c0,0,0,0,0,0
				c-0.2,0-0.5,0.1-0.6,0.3c-2,1.7-2.5,2.1-4.3,3.8c-0.4-0.9-0.6-1.5-0.8-1.9s-0.5-0.5-0.9-0.1c-2.1,2-3.3,3.3-4,4.1
				c-1,1.1-1,1.6-0.9,2.1s0.5,1.6,0.8,2.2c-2.7,3.9-2.8,4.1-2.4,5.1c1,2.1,1.1,2.4,1.6,1.6c0.1-0.2,0.2-0.4,0.3-0.6
				c1.4-2.4,3.1-4.7,5-6.9C17.3,91.9,17,91.5,17.7,90.7"/>
			<path class="st1" d="M23.2,111.1c2.2-3.1,4.6-6.1,7.3-8.8c2.5-2.7,2.5-2.7,9.1-9.1c-1.1-1-1.7-1.6-2.1-2c-0.2-0.3-0.6-0.5-1-0.5
				c-0.3,0-0.6,0.1-0.8,0.3l-0.7,0.6c-4.8,4.4-9.2,9.2-13.2,14.3c-1.5,2.2-1.6,2.3-0.9,3S22.5,110.4,23.2,111.1"/>
			<path class="st2" d="M50.9,82.9c-0.2,0-0.4,0.1-0.5,0.3c-1.8,3.1-4,6-6.5,8.6c-1,0.9-2-0.8-2.9,0l-1.4,1.4
				c-6.6,6.5-6.6,6.5-9.1,9.1c-2.7,2.7-5.1,5.7-7.3,8.8c-1.2,1.9-0.8,2.3-0.5,2.6c2.1,1.9,2.3,1.9,2.6,1.3l0.4-0.6
				c2.8-3.8,5.9-7.3,9.3-10.6l2-2.1c4.4-4.2,8.4-8.7,12.2-13.4c1.1-1.3,2-2.8,2.6-4.4C52.2,83.5,51.6,82.9,50.9,82.9"/>
			<path class="st1" d="M34,116.8c-1.8,2-3.5,4.2-4.9,6.6c0,0,1.3,0.9,2.1,1.5c0.3,0.2,0.7,0.2,1-0.1c0,0,0,0,0,0
				c1.2-1.7,2.5-3.3,3.9-4.8c0.3-0.3,0.3-0.8,0-1.1c0,0,0,0-0.1-0.1L34,116.8"/>
			<path class="st2" d="M40.4,79c-0.2,0-0.4,0.1-0.5,0.2c-6,6-6.2,5.9-6.9,5.2c-0.4-0.3-0.9-0.3-1.3,0l-3.3,2.9
				c-6.9,6.3-9.8,9.7-12.5,13.9c2.3,3.1,2.3,3.1,2.9,2.3l0.5-0.8c3.2-4.5,5.9-7.5,13.1-14.1l2.4-2.2c1.4-1.3,5.6-5.1,6.4-6.2
				c0.3-0.4,0.2-0.9-0.2-1.2C40.7,79,40.6,78.9,40.4,79"/>
			<path class="st0" d="M32.3,88.7c-7.2,6.6-9.8,9.6-13.1,14.1c0.8,0.9,1.9,2.2,2.7,3.1c4-5.2,8.4-10,13.2-14.3
				C34.3,90.7,33.1,89.5,32.3,88.7z"/>
			<path class="st2" d="M48.3,102.8c2.3-2.4,2.3-2.7,1.6-3.4L47.8,97c-6.1,6.9-13.7,12.4-19,20c-0.9,1.3-1.5,2.2-1.9,3
				c-1.1,1.9-0.7,2.2-0.2,2.6l1.8,1.2c0.3,0.1,0.4,0.1,0.5-0.2l0.1-0.2c1.4-2.3,3.1-4.6,4.9-6.6c0.7-0.8,2.4-2.4,3.2-3.1
				c0.8,0.7,1.7,1.5,2.1,1.9s0.9,0.5,1.4,0.1c0.8-0.7,4.5-4.2,5.2-4.9c0.4-0.3,0.4-0.9,0.1-1.3c-0.6-0.7-1.2-1.4-2-2.2
				C45.5,105.7,47,104.3,48.3,102.8"/>
			<path class="st0" d="M47.8,97c0.4-0.4,0.8-0.9,1-1.2c0.4-0.5,0-1.1-0.5-1.4c-0.4-0.3-0.9-0.2-1.2,0.1c-2.8,3.1-7.3,7.8-9.8,10.1
				c-0.4,0.4-1,0.4-1.4,0l-0.8-0.8c-3.4,3.2-6.5,6.8-9.3,10.6c0.9,0.8,2.1,1.8,3,2.6C34.1,109.4,41.8,103.9,47.8,97"/>
		</g>
	</g>
</g>
</svg>
