<?xml version="1.0" encoding="utf-8"?>
<!-- Generator: Adobe Illustrator 19.0.0, SVG Export Plug-In . SVG Version: 6.00 Build 0)  -->
<svg version="1.1" id="Layer_1" xmlns="http://www.w3.org/2000/svg" xmlns:xlink="http://www.w3.org/1999/xlink" x="0px" y="0px"
	 viewBox="0 93 194 110" style="enable-background:new 0 93 194 110;" xml:space="preserve">
<style type="text/css">
	.st0{fill:none;stroke:#161413;stroke-width:0.354;}
	.st1{fill:#161413;}
	.st2{fill:#858788;}
	.st3{fill:#B4B6B8;}
	.st4{fill:#FFFFFF;}
</style>
<g>
	<path class="st0" d="M105.1,172l19.2,29.4h-15.7l-2.1-3.3H87.6l-2.1,3.3H69.8L89,172H105.1z"/>
	<path class="st1" d="M10.9,201.5c-0.4-3.4-0.6-6.8-0.6-10.3c0-47.9,38.8-86.7,86.7-86.7c47.9,0,86.7,38.8,86.7,86.7
		c0,3.5-0.2,6.9-0.6,10.3h10.1c0.4-3.4,0.5-6.8,0.5-10.3c0-53.4-43.3-96.7-96.7-96.7c-53.4,0-96.7,43.3-96.7,96.7
		c0,3.5,0.2,6.9,0.5,10.3H10.9z"/>
	<path class="st0" d="M10.9,201.5l-0.5-5.1l-0.2-5.2l0.1-4.5l0.3-4.4l0.6-4.3l0.8-4.3l1-4.2l1.2-4.1l1.4-4l1.6-3.9l1.7-3.8l1.9-3.7
		l2.1-3.6l2.3-3.5l2.4-3.4l2.6-3.3l2.7-3.1l2.9-3l3-2.9l3.1-2.7l3.3-2.6l3.4-2.4l3.5-2.3l3.6-2.1l3.7-1.9l3.8-1.7l3.9-1.6l4-1.4
		l4.1-1.2l4.2-1l4.3-0.8l4.3-0.6l4.4-0.3l4.5-0.1l4.5,0.1l4.4,0.3l4.3,0.6l4.3,0.8l4.2,1l4.1,1.2l4,1.4l3.9,1.6l3.8,1.7l3.7,1.9
		l3.6,2.1l3.5,2.3l3.4,2.4l3.3,2.6l3.1,2.7l3,2.9l2.9,3l2.7,3.1l2.6,3.3l2.4,3.4l2.3,3.5l2.1,3.6l1.9,3.7l1.7,3.8l1.6,3.9l1.4,4
		l1.2,4.1l1,4.2l0.8,4.3l0.6,4.3l0.3,4.4l0.1,4.5l-0.2,5.2l-0.5,5.1h10.1l0.5-10.3l-0.1-5l-0.4-4.9l-0.6-4.8l-0.8-4.8l-1.1-4.7
		l-1.3-4.6l-1.5-4.5l-1.7-4.4l-1.9-4.3l-2.1-4.2l-2.3-4.1l-2.5-3.9l-2.7-3.8l-2.9-3.7l-3-3.5l-3.2-3.4l-3.4-3.2l-3.5-3l-3.7-2.9
		l-3.8-2.7l-3.9-2.5l-4-2.3l-4.2-2.1l-4.3-1.9l-4.4-1.7l-4.5-1.5l-4.6-1.3l-4.7-1.1l-4.8-0.8l-4.8-0.6l-4.9-0.4l-5-0.1l-5,0.1
		L87.1,95l-4.8,0.6l-4.8,0.8l-4.7,1.1l-4.6,1.3l-4.5,1.5l-4.4,1.7l-4.3,1.9l-4.2,2.1l-4,2.3l-3.9,2.5l-3.8,2.7l-3.7,2.9l-3.5,3
		l-3.4,3.2l-3.2,3.4l-3,3.5l-2.9,3.7l-2.7,3.8l-2.5,3.9l-2.3,4.1l-2.1,4.2l-1.9,4.3L6.2,158l-1.5,4.5L3.3,167l-1.1,4.7l-0.9,4.8
		l-0.6,4.8l-0.4,4.9l-0.1,5l0.1,5.2l0.4,5.1H10.9z"/>
	<path class="st2" d="M92.7,96.2v0.2h-3v0.2h-2.5v0.2h-1.5v0.2h-1.5v0.2h-1.3v0.2h-1.1v0.2h-1.1v0.2h-1.1v0.2h-0.9v0.2h-0.9v0.2
		h-0.9v0.2h-0.8v0.2h-0.8v0.2h-0.9V99h-0.8v0.2h-0.8v0.2H72v0.2h-0.8v0.2h-0.6v0.2h-0.8v0.2h-0.6v0.2h-0.8v0.2H68v0.2h-0.6v0.2h-0.6
		v0.2h-0.6v0.2h-0.6v0.2h-0.6v0.2h-0.6v0.2h-0.4v0.2h-0.6v0.2h-0.4v0.2h-0.6v0.2h-0.6v0.2h-0.4v0.2h-0.6v0.2h-0.4v0.2h-0.6v0.2h-0.4
		v0.2h-0.4v0.2h-0.6v0.2h-0.4v0.2h-0.4v0.2h-0.4v0.2h-0.4v0.2h-0.6v0.2h-0.4v0.2h-0.4v0.2h-0.4v0.2h-0.4v0.2H55v0.2h-0.4v0.2h-0.4
		v0.2h-0.4v0.2h-0.4v0.2h-0.4v0.2h-0.4v0.2h-0.4v0.2h-0.4v0.2h-0.4v0.2h-0.2v0.2H51v0.2h-0.4v0.2h-0.4v0.2H50v0.2h-0.4v0.2h-0.4v0.2
		h-0.4v0.2h-0.2v0.2h-0.4v0.2H48v0.2h-0.4v0.2h-0.2v0.2H47v0.2h-0.2v0.2h-0.4v0.2h-0.2v0.2h-0.4v0.2h-0.2v0.2h-0.4v0.2h-0.4v0.2
		h-0.2v0.2h-0.4v0.2h-0.2v0.2h-0.4v0.2h-0.2v0.2h-0.4v0.2H43v0.2h-0.2v0.2h-0.4v0.2h-0.2v0.2h-0.4v0.2h-0.2v0.2h-0.2v0.2h-0.4v0.2
		h-0.2v0.2h-0.4v0.2h-0.2v0.2H40v0.2h-0.2v0.2h-0.2v0.2h-0.2v0.2H39v0.2h-0.2v0.2h-0.2v0.2h-0.2v0.2h-0.4v0.2h-0.2v0.2h-0.2v0.2
		h-0.4v0.2h-0.2v0.2H37v0.2h-0.2v0.2h-0.4v0.2h-0.2v0.2H36v0.2h-0.2v0.2h-0.2v0.2h-0.2v0.2h-0.4v0.2h-0.2v0.2h-0.2v0.2h-0.2v0.2
		h-0.2v0.2h-0.2v0.2h-0.2v0.2h-0.4v0.2h-0.2v0.2h-0.2v0.2H33v0.2h-0.2v0.2h-0.2v0.2h-0.2v0.2h-0.2v0.2H32v0.2h-0.2v0.2h-0.2v0.2
		h-0.2v0.2h-0.2v0.2h-0.4v0.2h-0.2v0.2h-0.2v0.2h-0.2v0.2h-0.2v0.2h-0.2v0.2h-0.2v0.2h-0.2v0.2h-0.2v0.2h-0.2v0.2H29v0.2h-0.2v0.2
		h-0.2v0.2h-0.2v0.4h-0.2v0.2h-0.2v0.2h-0.2v0.2h-0.2v0.2h-0.2v0.2h-0.2v0.2h-0.2v0.2h-0.2v0.2h-0.2v0.2h-0.2v0.2h-0.2v0.2h-0.2v0.2
		H26v0.4h-0.2v0.2h-0.2v0.2h-0.2v0.2h-0.2v0.2H25v0.2h-0.2v0.4h-0.2v0.2h-0.2v0.2h-0.2v0.2h-0.2v0.2h-0.2v0.2h-0.2v0.2h-0.2v0.4
		h-0.2v0.2h-0.2v0.2h-0.2v0.4h-0.2v0.2h-0.2v0.2h-0.2v0.2h-0.2v0.4H22v0.2h-0.2v0.2h-0.2v0.2h-0.2v0.4h-0.2v0.2H21v0.2h-0.2v0.4
		h-0.2v0.2h-0.2v0.2h-0.2v0.4h-0.2v0.2h-0.2v0.4h-0.2v0.2h-0.2v0.2h-0.2v0.4h-0.2v0.2H19v0.4h-0.2v0.2h-0.2v0.2h-0.2v0.4h-0.2v0.2
		H18v0.4h-0.2v0.2h-0.2v0.4h-0.2v0.4h-0.2v0.2h-0.2v0.4h-0.2v0.2h-0.2v0.4h-0.2v0.2h-0.2v0.4h-0.2v0.2h-0.2v0.4h-0.2v0.4h-0.2v0.2
		h-0.2v0.4h-0.2v0.4H15v0.4h-0.2v0.2h-0.2v0.4h-0.2v0.4h-0.2v0.4H14v0.2h-0.2v0.4h-0.2v0.4h-0.2v0.4h-0.2v0.2h-0.2v0.4h-0.2v0.4
		h-0.2v0.4h-0.2v0.4h-0.2v0.4h-0.2v0.4h-0.2v0.4h-0.2v0.4h-0.2v0.4h-0.2v0.4h-0.2v0.4H11v0.4h-0.2v0.6h-0.2v0.4h-0.2v0.4h-0.2v0.4
		H10v0.6H9.9v0.4H9.7v0.4H9.5v0.4H9.3v0.6H9.1v0.4H8.9v0.6H8.7v0.4H8.5v0.6H8.3v0.4H8.2v0.6H8v0.4H7.8v0.6H7.6v0.6H7.4v0.6H7.2v0.6
		H7v0.6H6.8v0.6H6.6v0.6H6.4v0.6H6.3v0.6H6.1v0.6H5.9v0.8H5.7v0.6H5.5v0.8H5.3v0.6H5.1v0.8H4.9v0.8H4.7v0.8H4.6v0.9H4.4v0.8H4.2v0.8
		H4v0.9H3.8v0.9H3.6v1.1H3.4v0.9H3.2v1.1H3v1.3H2.8v1.3H2.7v1.5H2.5v1.9H2.3v2.5H2.1v4.2H1.9v3.8h0.2v4.2h0.2v3h6.8v-2.1H8.9v-4H8.7
		v-7.2h0.2v-2.5h0.2v-2.3h0.2v-1.5h0.2v-1.5h0.2v-1.3h0.2v-0.9H10v-1.1h0.2v-0.9h0.2v-1.1h0.2v-0.8h0.2v-0.9H11v-0.8h0.2v-0.8h0.2
		v-0.9h0.2v-0.6h0.2v-0.8h0.2v-0.6h0.2v-0.8h0.2v-0.6h0.2v-0.8h0.2v-0.6h0.2V164h0.2v-0.6h0.2v-0.6h0.2v-0.6h0.2v-0.6h0.2v-0.4H14
		v-0.6h0.2v-0.6h0.2v-0.4h0.2v-0.6h0.2v-0.4H15v-0.6h0.2v-0.6h0.2v-0.4h0.2v-0.6h0.2v-0.4h0.2V156h0.2v-0.4h0.2v-0.4h0.2v-0.6h0.2
		v-0.4h0.2V154h0.2v-0.4h0.2v-0.4h0.2v-0.6h0.2v-0.2h0.2v-0.4H18v-0.4h0.2v-0.4h0.2v-0.4h0.2v-0.4h0.2v-0.4H19v-0.4h0.2v-0.4h0.2
		V149h0.2v-0.4h0.2v-0.2h0.2v-0.4h0.2v-0.4h0.2v-0.4h0.2v-0.2h0.2v-0.4h0.2v-0.4H21V146h0.2v-0.2h0.2v-0.4h0.2v-0.4h0.2v-0.2H22
		v-0.4h0.2v-0.2h0.2v-0.4h0.2v-0.2h0.2v-0.4h0.2V143h0.2v-0.2h0.2v-0.4h0.2v-0.2h0.2v-0.4h0.2v-0.2h0.2v-0.4h0.2v-0.2h0.2v-0.2h0.2
		v-0.4h0.2v-0.2H25v-0.4h0.2v-0.2h0.2v-0.2h0.2v-0.4h0.2V139H26v-0.4h0.2v-0.2h0.2v-0.2h0.2v-0.4h0.2v-0.2h0.2v-0.2h0.2v-0.2h0.2
		v-0.4h0.2v-0.2h0.2v-0.2h0.2v-0.4h0.2V136h0.2v-0.2h0.2v-0.2h0.2v-0.4h0.2V135H29v-0.2h0.2v-0.2h0.2v-0.2h0.2v-0.2h0.2v-0.4h0.2
		v-0.2h0.2v-0.2h0.2v-0.2h0.2v-0.2h0.2v-0.2h0.2v-0.4h0.2v-0.2h0.2v-0.2h0.2V132h0.2v-0.2h0.2v-0.2H32v-0.2h0.2v-0.2h0.2V131h0.2
		v-0.2h0.2v-0.2H33v-0.2h0.2v-0.4h0.2v-0.2h0.2v-0.2h0.2v-0.2h0.2v-0.2h0.2v-0.2h0.2v-0.2h0.2v-0.2h0.2v-0.2h0.2v-0.2h0.2v-0.2h0.2
		V128h0.2v-0.2h0.2v-0.2h0.2v-0.2h0.4v-0.2h0.2V127h0.2v-0.2h0.2v-0.2H37v-0.2h0.2v-0.2h0.2v-0.2h0.2v-0.2h0.2v-0.2h0.2v-0.2h0.2
		v-0.2h0.2v-0.2h0.4V125h0.2v-0.2H39v-0.2h0.2v-0.2h0.2v-0.2h0.2V124h0.2v-0.2h0.4v-0.2h0.2v-0.2h0.2v-0.2h0.2v-0.2h0.2v-0.2h0.4
		v-0.2h0.2v-0.2h0.2v-0.2h0.2v-0.2h0.4v-0.2h0.2v-0.2h0.2v-0.2H43v-0.2h0.2v-0.2h0.2V121h0.2v-0.2H44v-0.2h0.2v-0.2h0.2v-0.2h0.4
		V120h0.2v-0.2h0.2v-0.2h0.4v-0.2h0.2v-0.2h0.4v-0.2h0.2v-0.2h0.2v-0.2h0.4v-0.2H47v-0.2h0.4v-0.2h0.2V118H48v-0.2h0.2v-0.2h0.4
		v-0.2h0.2v-0.2h0.4V117h0.2v-0.2h0.4v-0.2H50v-0.2h0.2v-0.2h0.4v-0.2h0.2v-0.2h0.4v-0.2h0.2v-0.2h0.4v-0.2h0.4v-0.2h0.4v-0.2h0.2
		v-0.2h0.4v-0.2h0.4v-0.2h0.4v-0.2H54V114h0.4v-0.2h0.4v-0.2h0.4v-0.2h0.4v-0.2h0.4V113h0.4v-0.2h0.2v-0.2h0.4v-0.2h0.4v-0.2h0.4
		v-0.2H58v-0.2h0.4v-0.2h0.4v-0.2h0.4v-0.2h0.6v-0.2h0.4v-0.2h0.4v-0.2h0.4v-0.2h0.4v-0.2h0.6v-0.2h0.4V110h0.4v-0.2h0.6v-0.2h0.4
		v-0.2h0.6v-0.2h0.4V109H65v-0.2h0.4v-0.2H66v-0.2h0.4v-0.2h0.6v-0.2h0.6v-0.2H68v-0.2h0.6v-0.2h0.6v-0.2h0.6v-0.2h0.6V107h0.6v-0.2
		h0.6v-0.2h0.8v-0.2h0.6v-0.2h0.8V106h0.6v-0.2h0.8v-0.2h0.8v-0.2h0.8v-0.2h0.9v-0.2h0.8v-0.2h0.8v-0.2h0.9v-0.2h1.1v-0.2h1.1v-0.2
		H83v-0.2h1.3v-0.2h1.5v-0.2h1.3v-0.2h2.1v-0.2h2.5V103h10.6v0.2h2.5v0.2h1.9v0.2h1.5v0.2h1.5v0.2h1.3v0.2h0.9v0.2h1.1v0.2h0.9v0.2
		h0.9v0.2h0.9v0.2h0.8v0.2h0.8v0.2h0.9v0.2h0.8v0.2h0.6v0.2h0.8v0.2h0.6v0.2h0.8v0.2h0.6v0.2h0.8v0.2h0.6v0.2h0.6v0.2h0.6v0.2h0.6
		v0.2h0.6v0.2h0.6v0.2h0.6v0.2h0.4v0.2h0.6v0.2h0.4v0.2h0.6v0.2h0.4v0.2h0.6v0.2h0.6v0.2h0.4v0.2h0.6v0.2h0.4v0.2h0.4v0.2h0.4v0.2
		h0.4v0.2h0.6v0.2h0.4v0.2h0.4v0.2h0.4v0.2h0.4v0.2h0.4v0.2h0.4v0.2h0.4v0.2h0.4v0.2h0.4v0.2h0.4v0.2h0.4v0.2h0.4v0.2h0.4v0.2h0.4
		v0.2h0.4v0.2h0.4v0.2h0.2v0.2h0.4v0.2h0.4v0.2h0.2v0.2h0.4v0.2h0.4v0.2h0.4v0.2h0.2v0.2h0.4v0.2h0.4v0.2h0.2v0.2h0.4v0.2h0.4v0.2
		h0.2v0.2h0.4v0.2h0.2v0.2h0.4v0.2h0.2v0.2h0.4v0.2h0.2v0.2h0.4v0.2h0.4v0.2h0.2v0.2h0.2v0.2h0.4v0.2h0.2v0.2h0.4v0.2h0.2v0.2h0.2
		v0.2h0.4v0.2h0.2v0.2h0.4v0.2h0.2v0.2h0.2v0.2h0.4v0.2h0.2v0.2h0.2v0.2h0.4v0.2h0.2v0.2h0.2v0.2h0.2v0.2h0.4v0.2h0.2v0.2h0.2v0.2
		h0.2v0.2h0.4v0.2h0.2v0.2h0.2v0.2h0.4v0.2h0.2v0.2h0.2v0.2h0.2v0.2h0.2v0.2h0.2v0.2h0.2v0.2h0.4v0.2h0.2v0.2h0.2v0.2h0.2v0.2h0.2
		v0.2h0.2v0.2h0.4v0.2h0.2v0.2h0.2v0.2h0.2v0.2h0.2v0.2h0.2v0.2h0.2v0.2h0.2v0.2h0.2v0.2h0.2v0.2h0.2v0.2h0.2v0.2h0.2v0.2h0.2v0.2
		h0.2v0.2h0.2v0.2h0.2v0.2h0.2v0.2h0.2v0.2h0.2v0.2h0.2v0.2h0.2v0.2h0.2v0.2h0.2v0.2h0.2v0.2h0.2v0.2h0.2v0.2h0.2v0.2h0.2v0.2h0.2
		v0.2h0.2v0.2h0.2v0.2h0.2v0.2h0.2v0.2h0.2v0.4h0.2v0.2h0.2v0.2h0.2v0.2h0.2v0.2h0.2v0.2h0.2v0.4h0.2v0.2h0.2v0.2h0.2v0.2h0.2v0.2
		h0.2v0.2h0.2v0.2h0.2v0.4h0.2v0.2h0.2v0.2h0.2v0.2h0.2v0.4h0.2v0.2h0.2v0.2h0.2v0.4h0.2v0.2h0.2v0.2h0.2v0.2h0.2v0.4h0.2v0.2h0.2
		v0.2h0.2v0.2h0.2v0.4h0.2v0.2h0.2v0.4h0.2v0.2h0.2v0.4h0.2v0.2h0.2v0.2h0.2v0.4h0.2v0.2h0.2v0.4h0.2v0.2h0.2v0.2h0.2v0.4h0.2v0.2
		h0.2v0.4h0.2v0.4h0.2v0.2h0.2v0.4h0.2v0.2h0.2v0.4h0.2v0.2h0.2v0.4h0.2v0.2h0.2v0.4h0.2v0.4h0.2v0.2h0.2v0.4h0.2v0.4h0.2v0.4h0.2
		v0.2h0.2v0.4h0.2v0.4h0.2v0.4h0.2v0.2h0.2v0.4h0.2v0.4h0.2v0.4h0.2v0.4h0.2v0.4h0.2v0.4h0.2v0.2h0.2v0.4h0.2v0.4h0.2v0.4h0.2v0.4
		h0.2v0.4h0.2v0.4h0.2v0.6h0.2v0.4h0.2v0.4h0.2v0.4h0.2v0.4h0.2v0.6h0.2v0.4h0.2v0.4h0.2v0.4h0.2v0.6h0.2v0.4h0.2v0.6h0.2v0.6h0.2
		v0.4h0.2v0.6h0.2v0.4h0.2v0.6h0.2v0.6h0.2v0.6h0.2v0.6h0.2v0.6h0.2v0.4h0.2v0.6h0.2v0.6h0.2v0.8h0.2v0.6h0.2v0.8h0.2v0.6h0.2v0.8
		h0.2v0.6h0.2v0.8h0.2v0.9h0.2v0.8h0.2v0.8h0.2v0.9h0.2v0.8h0.2v1.1h0.2v0.9h0.2v1.1h0.2v1.1h0.2v1.5h0.2v1.3h0.2v1.7h0.2v2.5h0.2
		v4.2h0.2v3h-0.2v4H185v3.6h6.6v-0.4h0.2v-4.2h0.2v-9.7h-0.2v-2.5h-0.2v-2.3h-0.2v-1.5h-0.2V178H191v-1.5h-0.2v-1.1h-0.2v-0.9h-0.2
		v-1.1h-0.2v-0.9h-0.2v-0.9h-0.2v-0.8h-0.2v-0.9h-0.2v-0.8h-0.2v-0.8h-0.2v-0.9H189v-0.6h-0.2v-0.8h-0.2v-0.6h-0.2v-0.8h-0.2V164
		H188v-0.8h-0.2v-0.6h-0.2v-0.6h-0.2v-0.6h-0.2V161h-0.2v-0.6h-0.2v-0.6h-0.2v-0.6h-0.2v-0.6h-0.2v-0.6h-0.2v-0.4h-0.2v-0.6h-0.2
		v-0.4h-0.2v-0.6h-0.2v-0.4h-0.2v-0.6H185v-0.4h-0.2v-0.6h-0.2V154h-0.2v-0.4h-0.2V153H184v-0.4h-0.2v-0.4h-0.2v-0.4h-0.2v-0.4h-0.2
		v-0.6h-0.2v-0.4h-0.2v-0.4h-0.2v-0.4h-0.2v-0.4h-0.2V149h-0.2v-0.4h-0.2v-0.4h-0.2v-0.4h-0.2v-0.4h-0.2v-0.4h-0.2v-0.4H181v-0.4
		h-0.2V146h-0.2v-0.4h-0.2v-0.2h-0.2v-0.4H180v-0.4h-0.2v-0.4h-0.2v-0.2h-0.2v-0.4h-0.2v-0.4h-0.2v-0.2h-0.2v-0.4h-0.2v-0.4h-0.2
		V142h-0.2v-0.2h-0.2v-0.4H178v-0.2h-0.2v-0.4h-0.2v-0.4h-0.2v-0.2h-0.2v-0.4H177v-0.2h-0.2v-0.4h-0.2v-0.2h-0.2v-0.4h-0.2v-0.4
		h-0.2v-0.2h-0.2v-0.4h-0.2v-0.2h-0.2v-0.2h-0.2v-0.4h-0.2v-0.2h-0.2v-0.4h-0.2v-0.2h-0.2v-0.2h-0.2v-0.4h-0.2v-0.2H174v-0.4h-0.2
		V135h-0.2v-0.2h-0.2v-0.4h-0.2v-0.2H173v-0.4h-0.2v-0.2h-0.2v-0.2h-0.2v-0.2h-0.2v-0.4h-0.2v-0.2h-0.2v-0.2h-0.2v-0.2h-0.2V132
		h-0.2v-0.2h-0.2v-0.2h-0.2v-0.4h-0.2V131h-0.2v-0.2h-0.2v-0.2h-0.2v-0.2H170v-0.4h-0.2v-0.2h-0.2v-0.2h-0.2v-0.2h-0.2v-0.2h-0.2
		v-0.2h-0.2v-0.4h-0.2v-0.2h-0.2v-0.2h-0.2v-0.2h-0.2V128h-0.2v-0.2h-0.2v-0.2h-0.2v-0.4h-0.2V127h-0.2v-0.2H167v-0.2h-0.2v-0.2
		h-0.2v-0.2h-0.2v-0.2h-0.2v-0.2H166v-0.2h-0.2v-0.2h-0.2v-0.2h-0.2v-0.2h-0.2V125h-0.2v-0.2h-0.2v-0.2h-0.2v-0.2h-0.2v-0.2h-0.2
		V124h-0.2v-0.2h-0.2v-0.2h-0.2v-0.2h-0.2v-0.2h-0.2v-0.2h-0.2v-0.2H163v-0.2h-0.2v-0.2h-0.2v-0.2h-0.2v-0.2h-0.2v-0.2H162v-0.2
		h-0.2v-0.2h-0.2v-0.2h-0.2v-0.2h-0.2V121h-0.2v-0.2h-0.2v-0.2h-0.4v-0.2h-0.2v-0.2h-0.2V120H160v-0.2h-0.2v-0.2h-0.2v-0.2h-0.4
		v-0.2H159v-0.2h-0.2v-0.2h-0.2v-0.2h-0.2v-0.2h-0.2v-0.2h-0.2v-0.2h-0.4V118h-0.2v-0.2h-0.2v-0.2h-0.2v-0.2h-0.4v-0.2h-0.2V117
		h-0.2v-0.2h-0.2v-0.2h-0.4v-0.2h-0.2v-0.2h-0.2v-0.2h-0.2v-0.2h-0.4v-0.2h-0.2v-0.2h-0.2v-0.2h-0.4v-0.2h-0.2v-0.2h-0.2v-0.2h-0.4
		v-0.2h-0.2v-0.2h-0.2v-0.2h-0.4V114h-0.2v-0.2H152v-0.2h-0.2v-0.2h-0.4v-0.2h-0.2V113h-0.2v-0.2h-0.4v-0.2h-0.2v-0.2h-0.4v-0.2
		h-0.2v-0.2h-0.4v-0.2h-0.2v-0.2H149v-0.2h-0.2v-0.2h-0.4v-0.2h-0.2v-0.2h-0.4v-0.2h-0.4v-0.2h-0.2v-0.2h-0.4v-0.2h-0.2V110h-0.4
		v-0.2h-0.4v-0.2h-0.2v-0.2h-0.4v-0.2H145V109h-0.4v-0.2h-0.2v-0.2H144v-0.2h-0.4v-0.2h-0.2v-0.2h-0.4v-0.2h-0.4v-0.2h-0.4v-0.2H142
		v-0.2h-0.4v-0.2h-0.4V107H141v-0.2h-0.4v-0.2h-0.4v-0.2h-0.4v-0.2h-0.4V106h-0.4v-0.2h-0.4v-0.2h-0.4v-0.2H138v-0.2h-0.6v-0.2H137
		v-0.2h-0.4v-0.2h-0.4v-0.2h-0.4v-0.2h-0.6v-0.2h-0.4v-0.2h-0.4v-0.2h-0.4v-0.2h-0.6v-0.2h-0.4v-0.2h-0.6V103h-0.4v-0.2h-0.6v-0.2
		h-0.4v-0.2h-0.6v-0.2h-0.4V102h-0.6v-0.2h-0.6v-0.2h-0.6v-0.2h-0.6v-0.2h-0.6v-0.2H127v-0.2h-0.6v-0.2h-0.6v-0.2h-0.6v-0.2h-0.6
		v-0.2h-0.8v-0.2h-0.6v-0.2h-0.8v-0.2h-0.6v-0.2h-0.8v-0.2h-0.6V99h-0.9v-0.2H119v-0.2h-0.8v-0.2h-0.9v-0.2h-0.8v-0.2h-0.9v-0.2
		h-1.1v-0.2h-0.9v-0.2h-1.1v-0.2h-1.1v-0.2h-1.5v-0.2h-1.5v-0.2h-1.5v-0.2h-2.5v-0.2h-2.8v-0.2H92.7z"/>
	<path class="st1" d="M42.7,182.1l10-10H67v29.4H51.8v-11.7l-9.1,9.1l-9.1-9.1v11.7H18.4v-29.4h14.2L42.7,182.1"/>
	<path class="st0" d="M42.7,182.1l10-10H67v29.4H51.8v-11.7l-9.1,9.1l-9.1-9.1v11.7H18.4v-29.4h14.2L42.7,182.1"/>
	<path class="st2" d="M20.1,173.7v26.2h11.8V186H32v0.2h0.2v0.2h0.2v0.2h0.2v0.2h0.2v0.2H33v0.2h0.2v0.2h0.2v0.2h0.2v0.2h0.2v0.2
		h0.2v0.2h0.2v0.2h0.2v0.2h0.2v0.2h0.2v0.2h0.2v0.2h0.2v0.2h0.2v0.2h0.2v0.2h0.2v0.2h0.2v0.2H36v0.2h0.2v0.2h0.2v0.2h0.2v0.2h0.2
		v0.2H37v0.2h0.2v0.2h0.2v0.2h0.2v0.2h0.2v0.2h0.2v0.2h0.2v0.2h0.2v0.2h0.2v0.2h0.2v0.2h0.2v0.2H39v0.2h0.2v0.2h0.2v0.2h0.2v0.2h0.2
		v0.2H40v0.2h0.2v0.2h0.2v0.2h0.2v0.2h0.2v0.2h0.2v0.2h0.2v0.2h0.2v0.2h0.2v0.2h0.2v0.2h0.2v0.2h0.2v0.2h0.2v0.2h0.2v0.2h0.4v-0.2
		H43v-0.2h0.2V196h0.2v-0.2h0.2v-0.2h0.2v-0.2H44v-0.2h0.2v-0.2h0.2v-0.2h0.2v-0.2h0.2v-0.2h0.2v-0.2h0.2v-0.2h0.2v-0.2h0.2v-0.2
		h0.2v-0.2h0.2v-0.2h0.2v-0.2h0.2V193h0.2v-0.2h0.2v-0.2h0.2v-0.2H47v-0.2h0.2v-0.2h0.2v-0.2h0.2v-0.2h0.2v-0.2H48v-0.2h0.2v-0.2
		h0.2v-0.2h0.2v-0.2h0.2v-0.2h0.2v-0.2h0.2v-0.2h0.2V190h0.2v-0.2h0.2v-0.2h0.2v-0.2H50v-0.2h0.2V189h0.2v-0.2h0.2v-0.2h0.2v-0.2H51
		v-0.2h0.2v-0.2h0.2v-0.2h0.2v-0.2h0.2v-0.2h0.2v-0.2h0.2v-0.2h0.2v-0.2h0.2v-0.2h0.2v-0.2h0.2v-0.2h0.2v-0.2h0.2V186h0.2v13.8h11.9
		v-26.2H53.3v0.2h-0.2v0.2h-0.2v0.2h-0.2v0.2h-0.2v0.2h-0.2v0.2h-0.2v0.2h-0.2v0.2h-0.2v0.2h-0.2v0.2h-0.2v0.2h-0.2v0.2H51v0.2h-0.2
		v0.2h-0.2v0.2h-0.2v0.2h-0.2v0.2H50v0.2h-0.2v0.2h-0.2v0.2h-0.2v0.2h-0.2v0.2h-0.2v0.2h-0.2v0.2h-0.2v0.2h-0.2v0.2h-0.2v0.2h-0.2
		v0.2H48v0.2h-0.2v0.2h-0.2v0.2h-0.2v0.2h-0.2v0.2H47v0.2h-0.2v0.2h-0.2v0.2h-0.2v0.2h-0.2v0.2h-0.2v0.2h-0.2v0.2h-0.2v0.2h-0.2v0.2
		h-0.2v0.2h-0.2v0.2h-0.2v0.2h-0.2v0.2h-0.2v0.2h-0.2v0.2h-0.2v0.2H44v0.2h-0.2v0.2h-0.2v0.2h-0.2v0.2h-0.2v0.2H43v0.2h-0.2v0.2
		h-0.4v-0.2h-0.2v-0.2h-0.2v-0.2h-0.2v-0.2h-0.2v-0.2h-0.2v-0.2h-0.2V183h-0.2v-0.2h-0.2v-0.2h-0.2v-0.2h-0.2v-0.2h-0.2V182h-0.2
		v-0.2H40v-0.2h-0.2v-0.2h-0.2v-0.2h-0.2v-0.2h-0.2v-0.2H39v-0.2h-0.2v-0.2h-0.2v-0.2h-0.2v-0.2h-0.2v-0.2h-0.2v-0.2h-0.2v-0.2h-0.2
		v-0.2h-0.2v-0.2h-0.2V179h-0.2v-0.2H37v-0.2h-0.2v-0.2h-0.2v-0.2h-0.2V178h-0.2v-0.2H36v-0.2h-0.2v-0.2h-0.2v-0.2h-0.2v-0.2h-0.2
		v-0.2h-0.2v-0.2h-0.2v-0.2h-0.2v-0.2h-0.2v-0.2h-0.2v-0.2h-0.2v-0.2h-0.2v-0.2h-0.2v-0.2h-0.2v-0.2h-0.2V175h-0.2v-0.2H33v-0.2
		h-0.2v-0.2h-0.2v-0.2h-0.2V174h-0.2v-0.2H32v-0.2H20.1z"/>
	<path class="st1" d="M105.1,172l19.2,29.4h-15.7l-2.1-3.3H87.6l-2.1,3.3H69.8L89,172H105.1z M101.5,190.4l-4.4-6.9l-4.4,6.9H101.5z
		"/>
	<path class="st0" d="M101.5,190.4l-4.4-6.9l-4.4,6.9H101.5z"/>
	<path class="st3" d="M89.8,173.7v0.2h-0.2v0.2h-0.2v0.4h-0.2v0.2h-0.2v0.4h-0.2v0.2h-0.2v0.4h-0.2v0.2h-0.2v0.4h-0.2v0.4h-0.2v0.2
		h-0.2v0.4h-0.2v0.2h-0.2v0.4h-0.2v0.2H87v0.4h-0.2v0.2h-0.2v0.4h-0.2v0.2h-0.2v0.4H86v0.2h-0.2v0.4h-0.2v0.4h-0.2v0.2h-0.2v0.4
		h-0.2v0.2h-0.2v0.4h-0.2v0.2h-0.2v0.4h-0.2v0.2h-0.2v0.4H84v0.2h-0.2v0.4h-0.2v0.2h-0.2v0.4h-0.2v0.2H83v0.4h-0.2v0.4h-0.2v0.2
		h-0.2v0.4h-0.2v0.2h-0.2v0.4h-0.2v0.2h-0.2v0.4h-0.2v0.2h-0.2v0.4h-0.2v0.2h-0.2v0.4h-0.2v0.2h-0.2v0.4h-0.2v0.4h-0.2v0.2H80v0.4
		h-0.2v0.2h-0.2v0.4h-0.2v0.2h-0.2v0.4H79v0.2h-0.2v0.4h-0.2v0.2h-0.2v0.4h-0.2v0.2h-0.2v0.4h-0.2v0.4h-0.2v0.2h-0.2v0.4h-0.2v0.2
		h-0.2v0.4h-0.2v0.2h-0.2v0.4h-0.2v0.2h-0.2v0.4h-0.2v0.2H76v0.4h-0.2v0.2h-0.2v0.4h-0.2v0.2h-0.2v0.4h-0.2v0.4h-0.2v0.2h-0.2v0.4
		h-0.2v0.2h-0.2v0.4h-0.2v0.2h-0.2v0.4h-0.2v0.2h-0.2v0.4h-0.2v0.2h-0.2v0.4H73v0.4h11.8v-0.2h0.2v-0.4h0.2v-0.4h0.2v-0.2h0.2v-0.4
		h0.2v-0.2h0.2v-0.4H86v-0.2h0.2v-0.4h0.2V197h0.2v-0.4h20.8v0.4h0.2v0.2h0.2v0.4h0.2v0.2h0.2v0.4h0.2v0.2h0.2v0.4h0.2v0.4h0.2v0.2
		h0.2v0.4h0.2v0.2h11.8v-0.4h-0.2v-0.4h-0.2v-0.2h-0.2v-0.4h-0.2v-0.2h-0.2v-0.4H120v-0.2h-0.2v-0.4h-0.2v-0.2h-0.2v-0.4h-0.2v-0.2
		H119v-0.4h-0.2V196h-0.2v-0.4h-0.2v-0.4h-0.2v-0.2h-0.2v-0.4h-0.2v-0.2h-0.2v-0.4h-0.2v-0.2h-0.2v-0.4h-0.2v-0.2h-0.2V193h-0.2
		v-0.2h-0.2v-0.4h-0.2v-0.2h-0.2v-0.4H116v-0.2h-0.2v-0.4h-0.2v-0.4h-0.2v-0.2h-0.2v-0.4H115v-0.2h-0.2v-0.4h-0.2v-0.2h-0.2v-0.4
		h-0.2V189h-0.2v-0.4h-0.2v-0.2h-0.2v-0.4h-0.2v-0.2h-0.2v-0.4h-0.2v-0.4H113v-0.2h-0.2v-0.4h-0.2v-0.2h-0.2V186h-0.2v-0.2H112v-0.4
		h-0.2v-0.2h-0.2v-0.4h-0.2v-0.2h-0.2v-0.4h-0.2v-0.2h-0.2v-0.4h-0.2v-0.4h-0.2v-0.2h-0.2v-0.4h-0.2v-0.2h-0.2v-0.4h-0.2V182h-0.2
		v-0.4h-0.2v-0.2h-0.2v-0.4H109v-0.2h-0.2v-0.4h-0.2v-0.2h-0.2v-0.4h-0.2v-0.2H108v-0.4h-0.2V179h-0.2v-0.2h-0.2v-0.4h-0.2v-0.2
		h-0.2v-0.4h-0.2v-0.2h-0.2v-0.4h-0.2v-0.2h-0.2v-0.4h-0.2v-0.2h-0.2v-0.4h-0.2v-0.2h-0.2v-0.4h-0.2v-0.4h-0.2V175H105v-0.4h-0.2
		v-0.2h-0.2V174h-0.2v-0.2h-0.2v-0.2H89.8z M96.8,180.9v-0.2h0.4v0.4h0.2v0.2h0.2v0.4h0.2v0.2H98v0.4h0.2v0.4h0.2v0.2h0.2v0.4h0.2
		v0.2h0.2v0.4h0.2v0.2h0.2v0.4h0.2v0.2h0.2v0.4h0.2v0.2h0.2v0.4h0.2v0.4h0.2v0.2h0.2v0.4h0.2v0.2h0.2v0.4h0.2v0.2h0.2v0.4h0.2v0.2
		h0.2v0.4h0.2v0.2h0.2v0.4h0.2v0.4h0.2v0.2h0.2v0.4h0.2v0.2h0.2v0.4h0.2v0.2h0.2v0.4h0.2v0.2h0.2v0.4h0.2v0.2h0.2v0.4h0.2v0.2H89.6
		v-0.2h0.2v-0.4H90v-0.2h0.2v-0.4h0.2v-0.2h0.2v-0.4h0.2v-0.2H91v-0.4h0.2v-0.2h0.2v-0.4h0.2V189h0.2v-0.4h0.2v-0.4h0.2v-0.2h0.2
		v-0.4h0.2v-0.2h0.2v-0.4h0.2v-0.2h0.2v-0.4h0.2v-0.2h0.2V186h0.2v-0.2h0.2v-0.4H94V185h0.2v-0.2h0.2v-0.4h0.2v-0.2h0.2v-0.4H95
		v-0.2h0.2v-0.4h0.2v-0.2h0.2v-0.4h0.2v-0.4h0.2v-0.2h0.2v-0.4h0.2v-0.2h0.2v-0.4h0.2v-0.2h0.2V180.9z"/>
	<path class="st1" d="M160.1,172.1h15.2v29.4h-15.2l-18-13.3v13.3H127v-29.4h15.1l18.1,13.4V172.1z"/>
	<path class="st0" d="M160.1,172.1h15.2v29.4h-15.2l-18-13.3v13.3H127v-29.4h15.1l18.1,13.4V172.1z"/>
	<path class="st2" d="M128.7,173.7v26.2h11.8V185h0.4v0.2h0.2v0.2h0.2v0.2h0.4v0.2h0.2v0.2h0.2v0.2h0.4v0.2h0.2v0.2h0.2v0.2h0.4v0.2
		h0.2v0.2h0.4v0.2h0.2v0.2h0.2v0.2h0.4v0.2h0.2v0.2h0.2v0.2h0.4v0.2h0.2v0.2h0.2v0.2h0.4v0.2h0.2v0.2h0.2v0.2h0.4v0.2h0.2v0.2h0.2
		v0.2h0.4v0.2h0.2v0.2h0.2v0.2h0.4v0.2h0.2v0.2h0.4v0.2h0.2v0.2h0.2v0.2h0.4v0.2h0.2v0.2h0.2v0.2h0.4v0.2h0.2v0.2h0.2v0.2h0.4v0.2
		h0.2v0.2h0.2v0.2h0.4v0.2h0.2v0.2h0.2v0.2h0.4v0.2h0.2v0.2h0.4v0.2h0.2v0.2h0.2v0.2h0.4v0.2h0.2v0.2h0.2v0.2h0.4v0.2h0.2v0.2h0.2
		v0.2h0.4v0.2h0.2v0.2h0.2v0.2h0.4v0.2h0.2v0.2h0.2v0.2h0.4v0.2h0.2v0.2h0.2v0.2h0.4v0.2h0.2v0.2h0.4v0.2h0.2v0.2h0.2v0.2h0.4v0.2
		h0.2v0.2h0.2v0.2h0.4v0.2h0.2v0.2h0.2v0.2h0.4v0.2h13.1v-26.2h-11.8v15h-0.4v-0.2h-0.2v-0.2h-0.2v-0.2h-0.4v-0.2h-0.2v-0.2h-0.2
		v-0.2H160v-0.2h-0.2v-0.2h-0.2v-0.2h-0.4v-0.2H159v-0.2h-0.2v-0.2h-0.4v-0.2h-0.2V186h-0.2v-0.2h-0.4v-0.2h-0.2v-0.2h-0.2v-0.2
		h-0.4V185h-0.2v-0.2h-0.4v-0.2h-0.2v-0.2H156v-0.2h-0.4v-0.2h-0.2v-0.2h-0.2v-0.2h-0.4v-0.2h-0.2v-0.2h-0.2v-0.2h-0.4V183h-0.2
		v-0.2h-0.2v-0.2h-0.4v-0.2h-0.2v-0.2h-0.2V182h-0.4v-0.2h-0.2v-0.2h-0.2v-0.2h-0.4v-0.2h-0.2v-0.2h-0.2v-0.2h-0.4v-0.2h-0.2v-0.2
		h-0.4v-0.2h-0.2v-0.2h-0.2v-0.2h-0.4v-0.2h-0.2v-0.2h-0.2v-0.2H149v-0.2h-0.2V179h-0.2v-0.2h-0.4v-0.2H148v-0.2h-0.2v-0.2h-0.4V178
		h-0.2v-0.2h-0.2v-0.2h-0.4v-0.2h-0.2v-0.2h-0.2v-0.2h-0.4v-0.2h-0.2v-0.2h-0.2v-0.2h-0.4v-0.2H145v-0.2h-0.4v-0.2h-0.2v-0.2h-0.2
		v-0.2h-0.4v-0.2h-0.2v-0.2h-0.2V175h-0.4v-0.2h-0.2v-0.2h-0.2v-0.2h-0.4v-0.2h-0.2V174H142v-0.2h-0.4v-0.2H128.7z"/>
	<g>
		<path class="st1" d="M127.8,172.8l1,1v25.9l-1,1V172.8z M89.4,172.8l0.5,1l-16.9,26l-1.8,1L89.4,172.8 M52.6,200.7l1-1h11.7l1,1
			H52.6z M183.9,200.7l1.4-1.3h5.9l1.2,1.3L183.9,200.7 M1.5,200.7l1.2-1.3h5.9l1.4,1.3H1.5z"/>
	</g>
	<path class="st4" d="M19.2,172.8l1.3,1.3h11.3l0.5-1.3H19.2z"/>
	<path class="st4" d="M32.3,172.8l-0.5,1.3L42.7,185v-1.8L32.3,172.8"/>
	<path class="st1" d="M42.7,183.2v1.4l10.8-10.8l-0.4-1L42.7,183.2"/>
	<path class="st4" d="M66.2,172.8l-1.3,1.3H53.6l-0.5-1.3H66.2z"/>
	<path class="st4" d="M66.2,172.8l-1.3,1.3v25.3l1.3,1.3V172.8z"/>
	<path class="st1" d="M52.6,200.7l1-1v-14.1l-1,2.3V200.7z"/>
	<path class="st1" d="M42.7,197.8v-1.4l10.8-10.8l-1,2.3L42.7,197.8 M42.7,197.8v-1.4l-11.2-11.2l1.3,2.7L42.7,197.8"/>
	<path class="st4" d="M32.8,200.7l-1.3-1.3v-14.2l1.3,2.7L32.8,200.7z"/>
	<path class="st1" d="M32.8,200.7l-1-1H20.1l-1,1H32.8z"/>
	<path class="st1" d="M19.2,172.8l1,1v25.9l-1,1V172.8z"/>
	<path class="st4" d="M104.7,192.1l-1.8-1H91.2l-1.8,1H104.7z"/>
	<path class="st1" d="M85,200.7l-0.5-1H73l-1.8,1H85z"/>
	<path class="st1" d="M85,200.7l-0.5-1l2.1-3.3l0.5,1L85,200.7"/>
	<path class="st1" d="M106.9,197.4l0.5-1H86.7l0.5,1H106.9z"/>
	<path class="st1" d="M106.9,197.4l0.5-1l2.1,3.3l-0.5,1L106.9,197.4"/>
	<path class="st4" d="M122.8,200.7l-2.4-1.3L104,174.1l0.7-1.3L122.8,200.7"/>
	<path class="st4" d="M89.4,172.8l0.7,1.3H104l0.7-1.3H89.4z M127.8,172.8l1.3,1.3h12.3l0.4-1.3H127.8z M160.9,187l1.3,2.6
		l-20.8-15.5l0.4-1.3L160.9,187"/>
	<path class="st1" d="M160.9,187l1,1.9v-15.1l-1-1V187z"/>
	<path class="st4" d="M174.5,172.8l-1.3,1.3h-11l-1.3-1.3H174.5z"/>
	<path class="st4" d="M174.5,172.8l-1.3,1.3v25.3l1.3,1.3V172.8z"/>
	<path class="st1" d="M160.4,200.7l0.3-1h12.9l1,1H160.4z"/>
	<path class="st1" d="M160.4,200.7l0.3-1l-20.6-15.3l1.3,2.2L160.4,200.7"/>
	<path class="st4" d="M141.4,200.7l-1.3-1.3v-14.9l1.3,2.2V200.7z"/>
	<path class="st1" d="M141.4,200.7l-1-1h-11.7l-1,1H141.4z"/>
	<path class="st4" d="M92.1,95.2v0.2h-2.7v0.2H87v0.2h-1.5V96h-1.3v0.2h-1.5v0.2h-1.1v0.2h-1.1v0.2h-1.1v0.2h-0.9v0.2h-0.9v0.2h-0.9
		v0.2h-0.8v0.2h-0.8v0.2h-0.9v0.2h-0.8v0.2h-0.8v0.2h-0.6v0.2h-0.8v0.2h-0.6V99h-0.8v0.2h-0.6v0.2h-0.8v0.2h-0.6v0.2h-0.6v0.2h-0.6
		v0.2h-0.6v0.2h-0.6v0.2H65v0.2h-0.6v0.2h-0.6v0.2h-0.4v0.2h-0.6v0.2h-0.4v0.2H62v0.2h-0.4v0.2H61v0.2h-0.4v0.2h-0.6v0.2h-0.4v0.2
		h-0.6v0.2h-0.4v0.2h-0.4v0.2H58v0.2h-0.6v0.2H57v0.2h-0.4v0.2h-0.4v0.2h-0.4v0.2h-0.6v0.2H55v0.2h-0.4v0.2h-0.2v0.2H54v0.2h-0.4
		v0.2h-0.4v0.2h-0.4v0.2h-0.4v0.2h-0.4v0.2h-0.4v0.2h-0.4v0.2H51v0.2h-0.4v0.2h-0.2v0.2H50v0.2h-0.4v0.2h-0.4v0.2h-0.2v0.2h-0.4v0.2
		h-0.4v0.2H48v0.2h-0.2v0.2h-0.4v0.2H47v0.2h-0.2v0.2h-0.4v0.2h-0.2v0.2h-0.4v0.2h-0.4v0.2h-0.2v0.2h-0.4v0.2h-0.2v0.2h-0.4v0.2
		h-0.2v0.2h-0.4v0.2h-0.2v0.2h-0.4v0.2H43v0.2h-0.4v0.2h-0.2v0.2h-0.4v0.2h-0.2v0.2h-0.2v0.2h-0.4v0.2h-0.2v0.2h-0.4v0.2h-0.2v0.2
		h-0.2v0.2H40v0.2h-0.2v0.2h-0.4v0.2h-0.2v0.2H39v0.2h-0.2v0.2h-0.4v0.2h-0.2v0.2h-0.2v0.2h-0.4v0.2h-0.2v0.2h-0.2v0.2h-0.2v0.2
		h-0.4v0.2h-0.2v0.2h-0.2v0.2h-0.2v0.2h-0.4v0.2h-0.2v0.2h-0.2v0.2h-0.2v0.2h-0.2v0.2h-0.4v0.2h-0.2v0.2h-0.2v0.2h-0.2v0.2h-0.2v0.2
		h-0.2v0.2h-0.2v0.2h-0.4v0.2H33v0.2h-0.2v0.2h-0.2v0.2h-0.2v0.2h-0.2v0.2H32v0.2h-0.2v0.2h-0.2v0.2h-0.2v0.2h-0.4v0.2h-0.2v0.2
		h-0.2v0.2h-0.2v0.2h-0.2v0.2h-0.2v0.2h-0.2v0.2h-0.2v0.2h-0.2v0.2h-0.2v0.2h-0.2v0.2H29v0.2h-0.2v0.2h-0.2v0.2h-0.2v0.2h-0.2v0.2
		h-0.2v0.2h-0.2v0.2h-0.2v0.2h-0.2v0.2h-0.2v0.2h-0.2v0.4h-0.2v0.2h-0.2v0.2h-0.2v0.2h-0.2v0.2h-0.2v0.2H26v0.2h-0.2v0.2h-0.2v0.2
		h-0.2v0.2h-0.2v0.2H25v0.4h-0.2v0.2h-0.2v0.2h-0.2v0.2h-0.2v0.2h-0.2v0.2h-0.2v0.4h-0.2v0.2h-0.2v0.2h-0.2v0.2h-0.2v0.2h-0.2v0.2
		h-0.2v0.4h-0.2v0.2h-0.2v0.2h-0.2v0.2H22v0.4h-0.2v0.2h-0.2v0.2h-0.2v0.2h-0.2v0.4H21v0.2h-0.2v0.2h-0.2v0.4h-0.2v0.2h-0.2v0.2
		h-0.2v0.2h-0.2v0.4h-0.2v0.2h-0.2v0.4h-0.2v0.2h-0.2v0.2H19v0.4h-0.2v0.2h-0.2v0.4h-0.2v0.2h-0.2v0.2H18v0.4h-0.2v0.2h-0.2v0.4
		h-0.2v0.2h-0.2v0.4h-0.2v0.2h-0.2v0.4h-0.2v0.2h-0.2v0.4h-0.2v0.2h-0.2v0.4h-0.2v0.4h-0.2v0.2h-0.2v0.4h-0.2v0.2h-0.2v0.4H15v0.2
		h-0.2v0.4h-0.2v0.4h-0.2v0.4h-0.2v0.2H14v0.4h-0.2v0.4h-0.2v0.4h-0.2v0.2h-0.2v0.4h-0.2v0.4h-0.2v0.4h-0.2v0.2h-0.2v0.4h-0.2v0.4
		h-0.2v0.4h-0.2v0.4h-0.2v0.4h-0.2v0.4h-0.2v0.4h-0.2v0.4H11v0.4h-0.2v0.4h-0.2v0.4h-0.2v0.4h-0.2v0.4H10v0.4H9.9v0.4H9.7v0.6H9.5
		v0.4H9.3v0.4H9.1v0.4H8.9v0.4H8.7v0.6H8.5v0.4H8.3v0.6H8.2v0.4H8v0.6H7.8v0.4H7.6v0.6H7.4v0.4H7.2v0.6H7v0.4H6.8v0.6H6.6v0.6H6.4
		v0.6H6.3v0.6H6.1v0.6H5.9v0.6H5.7v0.6H5.5v0.6H5.3v0.6H5.1v0.6H4.9v0.8H4.7v0.6H4.6v0.8H4.4v0.6H4.2v0.8H4v0.8H3.8v0.8H3.6v0.9H3.4
		v0.8H3.2v0.8H3v0.9H2.8v0.9H2.7v1.1H2.5v0.9H2.3v1.1H2.1v1.3H1.9v1.3H1.7v1.5H1.5v1.7H1.3v2.5H1.1v4H1v4.5h0.2v4h0.2v3.8h0.2v0.2
		h0.2v-0.2h0.2v-0.2h0.2v-0.2h0.2V200h0.2v-0.2h0.2v-0.2h0.2v-1.5H2.7v-4.4H2.5v-6.8h0.2v-2.8h0.2v-2.5H3v-1.5h0.2v-1.5h0.2v-1.5
		h0.2v-1.1h0.2V175H4v-1.1h0.2v-0.9h0.2v-1.1h0.2V171h0.2v-0.8h0.2v-0.9h0.2v-0.8h0.2v-0.8h0.2V167h0.2v-0.6h0.2v-0.8h0.2v-0.6h0.2
		v-0.8h0.2v-0.6h0.2v-0.8h0.2v-0.6H7v-0.6h0.2v-0.6h0.2v-0.6h0.2v-0.6h0.2v-0.6H8v-0.6h0.2v-0.4h0.2v-0.6h0.2v-0.4h0.2v-0.6h0.2
		v-0.6h0.2v-0.4h0.2v-0.6h0.2v-0.4h0.2v-0.6h0.2v-0.4H10V154h0.2v-0.6h0.2V153h0.2v-0.4h0.2v-0.4H11v-0.4h0.2v-0.6h0.2v-0.4h0.2
		v-0.4h0.2v-0.4h0.2v-0.4h0.2v-0.4h0.2V149h0.2v-0.4h0.2v-0.4h0.2v-0.4h0.2v-0.4h0.2v-0.4h0.2v-0.4h0.2v-0.4h0.2V146H14v-0.2h0.2
		v-0.4h0.2v-0.4h0.2v-0.4h0.2v-0.2H15v-0.4h0.2v-0.4h0.2v-0.2h0.2v-0.4h0.2v-0.4h0.2v-0.4h0.2v-0.2h0.2v-0.4h0.2v-0.4h0.2v-0.2h0.2
		v-0.4h0.2v-0.2h0.2v-0.4h0.2v-0.2h0.2v-0.4h0.2v-0.2H18v-0.4h0.2v-0.4h0.2v-0.2h0.2v-0.4h0.2V138H19v-0.2h0.2v-0.4h0.2v-0.2h0.2
		v-0.4h0.2v-0.2h0.2v-0.2h0.2v-0.4h0.2V136h0.2v-0.4h0.2v-0.2h0.2v-0.2H21v-0.4h0.2v-0.2h0.2v-0.4h0.2v-0.2h0.2v-0.2H22v-0.2h0.2
		v-0.4h0.2v-0.2h0.2v-0.2h0.2v-0.2h0.2v-0.4h0.2v-0.2h0.2V132h0.2v-0.4h0.2v-0.2h0.2v-0.2h0.2V131h0.2v-0.2h0.2v-0.4h0.2v-0.2h0.2
		v-0.2H25v-0.2h0.2v-0.2h0.2v-0.2h0.2v-0.4h0.2v-0.2H26v-0.2h0.2v-0.2h0.2v-0.2h0.2v-0.2h0.2V128h0.2v-0.4h0.2v-0.2h0.2v-0.2h0.2
		V127h0.2v-0.2h0.2v-0.2h0.2v-0.2h0.2v-0.2h0.2v-0.2h0.2v-0.2h0.2v-0.2H29v-0.2h0.2v-0.2h0.2v-0.2h0.2V125h0.2v-0.2h0.2v-0.2h0.2
		v-0.2h0.2v-0.2h0.2V124h0.2v-0.2h0.2v-0.2h0.2v-0.2h0.2v-0.2h0.2v-0.2h0.2v-0.2h0.2v-0.2H32v-0.2h0.2v-0.2h0.2v-0.2h0.2v-0.2h0.2
		v-0.2H33v-0.2h0.2v-0.2h0.2v-0.2h0.4V121h0.2v-0.2h0.2v-0.2h0.2v-0.2h0.2v-0.2h0.2V120h0.2v-0.2h0.4v-0.2h0.2v-0.2h0.2v-0.2h0.2
		v-0.2H36v-0.2h0.2v-0.2h0.4v-0.2h0.2v-0.2H37v-0.2h0.2V118h0.2v-0.2h0.4v-0.2h0.2v-0.2h0.2v-0.2h0.4V117h0.2v-0.2h0.2v-0.2H39v-0.2
		h0.4v-0.2h0.2v-0.2h0.2v-0.2H40v-0.2h0.4v-0.2h0.2v-0.2h0.2v-0.2h0.4v-0.2h0.2v-0.2h0.4v-0.2h0.2v-0.2h0.2v-0.2h0.4V114h0.2v-0.2
		H43v-0.2h0.2v-0.2h0.2v-0.2h0.4V113H44v-0.2h0.4v-0.2h0.2v-0.2h0.4v-0.2h0.2v-0.2h0.4v-0.2h0.4v-0.2h0.2v-0.2h0.4v-0.2h0.2v-0.2H47
		v-0.2h0.2v-0.2h0.4v-0.2h0.2v-0.2h0.4v-0.2h0.4V110h0.4v-0.2h0.2v-0.2h0.4v-0.2h0.4v-0.2h0.4V109h0.2v-0.2h0.4v-0.2h0.4v-0.2h0.4
		v-0.2h0.2v-0.2h0.4v-0.2h0.4v-0.2h0.4v-0.2h0.4v-0.2h0.4v-0.2H54V107h0.4v-0.2h0.4v-0.2h0.4v-0.2h0.4v-0.2h0.4V106h0.4v-0.2h0.4
		v-0.2H57v-0.2h0.4v-0.2H58v-0.2h0.4v-0.2h0.4v-0.2h0.4v-0.2h0.4v-0.2h0.6v-0.2h0.4v-0.2h0.4v-0.2h0.6v-0.2H62v-0.2h0.4v-0.2h0.6
		V103h0.4v-0.2h0.6v-0.2h0.4v-0.2h0.6v-0.2h0.6V102H66v-0.2h0.6v-0.2h0.6v-0.2h0.6v-0.2h0.6v-0.2h0.6v-0.2h0.6v-0.2h0.6v-0.2h0.8
		v-0.2h0.6v-0.2H72v-0.2h0.8v-0.2h0.6v-0.2h0.8v-0.2h0.9v-0.2h0.8V99h0.8v-0.2h0.9v-0.2h0.8v-0.2h1.1v-0.2h1.1v-0.2h0.9v-0.2h1.1
		v-0.2H84v-0.2h1.5v-0.2H87v-0.2h2.3v-0.2h2.5v-0.2h10.6v0.2h2.5v0.2h2.3v0.2h1.3v0.2h1.5v0.2h1.5v0.2h1.1v0.2h0.9v0.2h1.1v0.2h0.9
		v0.2h0.9v0.2h0.8V99h0.9v0.2h0.8v0.2h0.8v0.2h0.9v0.2h0.6v0.2h0.8v0.2h0.6v0.2h0.8v0.2h0.6v0.2h0.8v0.2h0.6v0.2h0.6v0.2h0.6v0.2
		h0.6v0.2h0.6v0.2h0.6v0.2h0.6v0.2h0.6v0.2h0.4v0.2h0.6v0.2h0.4v0.2h0.6v0.2h0.6v0.2h0.4v0.2h0.6v0.2h0.4v0.2h0.6v0.2h0.4v0.2h0.4
		v0.2h0.4v0.2h0.6v0.2h0.4v0.2h0.4v0.2h0.4v0.2h0.6v0.2h0.4v0.2h0.4v0.2h0.4v0.2h0.4v0.2h0.4v0.2h0.4v0.2h0.4v0.2h0.4v0.2h0.4v0.2
		h0.4v0.2h0.4v0.2h0.4v0.2h0.4v0.2h0.2v0.2h0.4v0.2h0.4v0.2h0.4v0.2h0.2v0.2h0.4v0.2h0.4v0.2h0.4v0.2h0.2v0.2h0.4v0.2h0.4v0.2h0.2
		v0.2h0.4v0.2h0.4v0.2h0.2v0.2h0.4v0.2h0.2v0.2h0.4v0.2h0.2v0.2h0.4v0.2h0.4v0.2h0.2v0.2h0.4v0.2h0.2v0.2h0.4v0.2h0.2v0.2h0.4v0.2
		h0.2v0.2h0.4v0.2h0.2v0.2h0.2v0.2h0.4v0.2h0.2v0.2h0.4v0.2h0.2v0.2h0.2v0.2h0.4v0.2h0.2v0.2h0.4v0.2h0.2v0.2h0.2v0.2h0.2v0.2h0.4
		v0.2h0.2v0.2h0.2v0.2h0.4v0.2h0.2v0.2h0.2v0.2h0.2v0.2h0.4v0.2h0.2v0.2h0.2v0.2h0.2v0.2h0.4v0.2h0.2v0.2h0.2v0.2h0.2v0.2h0.2v0.2
		h0.4v0.2h0.2v0.2h0.2v0.2h0.2v0.2h0.2v0.2h0.2v0.2h0.2v0.2h0.4v0.2h0.2v0.2h0.2v0.2h0.2v0.2h0.2v0.2h0.2v0.2h0.2v0.2h0.2v0.2h0.2
		v0.2h0.2v0.2h0.4v0.2h0.2v0.2h0.2v0.2h0.2v0.2h0.2v0.2h0.2v0.2h0.2v0.2h0.2v0.2h0.2v0.2h0.2v0.2h0.2v0.2h0.2v0.2h0.2v0.2h0.2v0.2
		h0.2v0.2h0.2v0.2h0.2v0.2h0.2v0.2h0.2v0.2h0.2v0.2h0.2v0.2h0.2v0.4h0.2v0.2h0.2v0.2h0.2v0.2h0.2v0.2h0.2v0.2h0.2v0.2h0.2v0.2h0.2
		v0.2h0.2v0.2h0.2v0.2h0.2v0.4h0.2v0.2h0.2v0.2h0.2v0.2h0.2v0.2h0.2v0.2h0.2v0.4h0.2v0.2h0.2v0.2h0.2v0.2h0.2v0.2h0.2v0.2h0.2v0.4
		h0.2v0.2h0.2v0.2h0.2v0.4h0.2v0.2h0.2v0.2h0.2v0.2h0.2v0.4h0.2v0.2h0.2v0.2h0.2v0.2h0.2v0.4h0.2v0.2h0.2v0.2h0.2v0.4h0.2v0.2h0.2
		v0.2h0.2v0.4h0.2v0.2h0.2v0.4h0.2v0.2h0.2v0.2h0.2v0.4h0.2v0.2h0.2v0.4h0.2v0.2h0.2v0.4h0.2v0.2h0.2v0.4h0.2v0.2h0.2v0.4h0.2v0.2
		h0.2v0.4h0.2v0.2h0.2v0.4h0.2v0.2h0.2v0.4h0.2v0.4h0.2v0.2h0.2v0.4h0.2v0.2h0.2v0.4h0.2v0.4h0.2v0.2h0.2v0.4h0.2v0.4h0.2v0.4h0.2
		v0.2h0.2v0.4h0.2v0.4h0.2v0.4h0.2v0.2h0.2v0.4h0.2v0.4h0.2v0.4h0.2v0.4h0.2v0.4h0.2v0.4h0.2v0.4h0.2v0.4h0.2v0.4h0.2v0.4h0.2v0.4
		h0.2v0.4h0.2v0.4h0.2v0.4h0.2v0.4h0.2v0.4h0.2v0.6h0.2v0.4h0.2v0.4h0.2v0.4h0.2v0.6h0.2v0.4h0.2v0.4h0.2v0.6h0.2v0.4h0.2v0.6h0.2
		v0.4h0.2v0.6h0.2v0.6h0.2v0.4h0.2v0.6h0.2v0.6h0.2v0.6h0.2v0.4h0.2v0.6h0.2v0.6h0.2v0.6h0.2v0.6h0.2v0.6h0.2v0.8h0.2v0.6h0.2v0.8
		h0.2v0.6h0.2v0.8h0.2v0.8h0.2v0.6h0.2v0.9h0.2v0.8h0.2v0.8h0.2v0.9h0.2v0.8h0.2v1.1h0.2v0.9h0.2v1.1h0.2v0.9h0.2v1.3h0.2v1.5h0.2
		v1.5h0.2v1.9h0.2v2.5h0.2v4.7h0.2v2.3h-0.2v4.4h-0.2v3.2h0.2v0.2h0.2v0.2h0.2v0.2h0.2v0.4h0.2v0.2h0.4v-1.7h0.2v-3.8h0.2v-4h0.2
		v-0.2h-0.2v-5.7h-0.2v-2.7h-0.2v-2.1h-0.2v-1.5h-0.2v-1.3H192v-1.5h-0.2v-1.1h-0.2v-0.9h-0.2v-1.1h-0.2v-0.9H191v-0.9h-0.2v-0.8
		h-0.2v-0.9h-0.2v-0.8h-0.2V168h-0.2V167h-0.2v-0.6h-0.2v-0.8h-0.2v-0.6h-0.2v-0.8h-0.2v-0.6H189v-0.8h-0.2v-0.6h-0.2v-0.6h-0.2
		v-0.6h-0.2v-0.6H188v-0.6h-0.2v-0.6h-0.2v-0.6h-0.2v-0.6h-0.2v-0.6h-0.2v-0.4h-0.2V157h-0.2v-0.4h-0.2V156h-0.2v-0.4h-0.2v-0.6
		h-0.2v-0.4h-0.2v-0.6h-0.2v-0.4h-0.2v-0.6h-0.2v-0.4H185v-0.4h-0.2v-0.4h-0.2v-0.6h-0.2v-0.4h-0.2v-0.4H184v-0.4h-0.2V150h-0.2
		v-0.6h-0.2V149h-0.2v-0.2h-0.2v-0.4h-0.2v-0.4h-0.2v-0.4h-0.2v-0.4h-0.2v-0.4h-0.2v-0.4h-0.2v-0.4h-0.2v-0.4h-0.2v-0.4h-0.2v-0.4
		h-0.2v-0.4H181v-0.2h-0.2v-0.4h-0.2v-0.4h-0.2v-0.4h-0.2v-0.2H180v-0.4h-0.2v-0.4h-0.2v-0.2h-0.2v-0.4h-0.2v-0.4h-0.2v-0.4h-0.2
		v-0.2h-0.2v-0.4h-0.2v-0.2h-0.2v-0.4h-0.2v-0.2H178v-0.4h-0.2v-0.2h-0.2v-0.4h-0.2v-0.4h-0.2v-0.2H177v-0.4h-0.2v-0.2h-0.2v-0.4
		h-0.2v-0.2h-0.2v-0.4h-0.2v-0.2h-0.2v-0.2h-0.2V136h-0.2v-0.2h-0.2v-0.4h-0.2v-0.2h-0.2V135h-0.2v-0.4h-0.2v-0.2h-0.2v-0.4h-0.2
		v-0.2H174v-0.2h-0.2v-0.4h-0.2v-0.2h-0.2v-0.2h-0.2v-0.2H173v-0.4h-0.2v-0.2h-0.2V132h-0.2v-0.4h-0.2v-0.2h-0.2v-0.2h-0.2V131h-0.2
		v-0.4h-0.2v-0.2h-0.2v-0.2h-0.2v-0.2h-0.2v-0.4h-0.2v-0.2h-0.2v-0.2h-0.2v-0.2h-0.2v-0.2H170v-0.2h-0.2v-0.4h-0.2v-0.2h-0.2V128
		h-0.2v-0.2h-0.2v-0.2h-0.2v-0.2h-0.2v-0.2h-0.2v-0.4h-0.2v-0.2h-0.2v-0.2h-0.2v-0.2h-0.2v-0.2h-0.2v-0.2h-0.2v-0.2h-0.2v-0.2H167
		v-0.2h-0.2v-0.2h-0.2V125h-0.2v-0.2h-0.2v-0.2H166v-0.2h-0.2v-0.2h-0.2V124h-0.2v-0.4h-0.2v-0.2h-0.2v-0.2h-0.2v-0.2h-0.2v-0.2
		h-0.2v-0.2h-0.4v-0.2h-0.2v-0.2h-0.2v-0.2h-0.2v-0.2h-0.2v-0.2h-0.2v-0.2H163v-0.2h-0.2v-0.2h-0.2V121h-0.2v-0.2h-0.2v-0.2H162
		v-0.2h-0.2v-0.2h-0.2V120h-0.2v-0.2h-0.2v-0.2h-0.4v-0.2h-0.2v-0.2h-0.2v-0.2h-0.2v-0.2h-0.2v-0.2H160v-0.2h-0.4v-0.2h-0.2v-0.2
		h-0.2V118H159v-0.2h-0.2v-0.2h-0.2v-0.2h-0.2v-0.2h-0.4V117h-0.2v-0.2h-0.2v-0.2h-0.2v-0.2h-0.4v-0.2h-0.2v-0.2h-0.2v-0.2h-0.4
		v-0.2h-0.2v-0.2H156v-0.2h-0.2v-0.2h-0.4v-0.2h-0.2v-0.2H155v-0.2h-0.2v-0.2h-0.4v-0.2h-0.2V114h-0.4v-0.2h-0.2v-0.2h-0.2v-0.2
		h-0.4v-0.2h-0.2V113h-0.4v-0.2h-0.2v-0.2h-0.2v-0.2h-0.4v-0.2h-0.2v-0.2h-0.4v-0.2h-0.2v-0.2h-0.2v-0.2h-0.4v-0.2h-0.2v-0.2h-0.4
		v-0.2h-0.4v-0.2h-0.2v-0.2H149v-0.2h-0.2v-0.2h-0.4V110h-0.2v-0.2h-0.4v-0.2h-0.4v-0.2h-0.2v-0.2h-0.4V109h-0.2v-0.2h-0.4v-0.2
		h-0.4v-0.2h-0.4v-0.2h-0.2v-0.2H145v-0.2h-0.4v-0.2h-0.2v-0.2H144v-0.2h-0.4v-0.2h-0.4V107h-0.2v-0.2h-0.4v-0.2h-0.4v-0.2H142v-0.2
		h-0.4V106h-0.4v-0.2h-0.4v-0.2h-0.4v-0.2h-0.4v-0.2h-0.4v-0.2h-0.4v-0.2h-0.4v-0.2h-0.4v-0.2h-0.4v-0.2h-0.4v-0.2h-0.4v-0.2h-0.6
		v-0.2h-0.4v-0.2h-0.4v-0.2h-0.4v-0.2h-0.6V103h-0.4v-0.2h-0.4v-0.2h-0.6v-0.2h-0.4v-0.2h-0.6V102h-0.4v-0.2h-0.6v-0.2h-0.4v-0.2
		H131v-0.2h-0.4v-0.2H130v-0.2h-0.6v-0.2h-0.6v-0.2h-0.6v-0.2h-0.6v-0.2h-0.6v-0.2h-0.6v-0.2H126v-0.2h-0.6v-0.2h-0.6v-0.2h-0.8V99
		h-0.6v-0.2h-0.8v-0.2h-0.6v-0.2h-0.8v-0.2h-0.6v-0.2H120v-0.2h-0.8v-0.2h-0.8v-0.2h-0.9v-0.2h-0.8v-0.2h-0.9v-0.2h-1.1v-0.2h-0.9
		v-0.2h-1.1v-0.2h-1.1v-0.2h-1.5V96h-1.5v-0.2h-1.5v-0.2h-2.5v-0.2H102v-0.2H92.1z"/>
	<path class="st4" d="M92.3,102.4v0.2h-2.5v0.2h-2.3v0.2H86v0.2h-1.5v0.2h-1.3v0.2h-1.1v0.2h-1.1v0.2H80v0.2h-1.1v0.2h-0.8v0.2h-0.8
		v0.2h-0.9v0.2h-0.8v0.2h-0.8v0.2h-0.8v0.2h-0.6v0.2h-0.8v0.2h-0.6v0.2h-0.8v0.2h-0.6v0.2h-0.8v0.2h-0.6v0.2H69v0.2h-0.6v0.2h-0.6
		v0.2h-0.4v0.2h-0.6v0.2h-0.6v0.2h-0.6v0.2h-0.4v0.2h-0.6v0.2h-0.4v0.2h-0.6v0.2h-0.4v0.2h-0.6v0.2h-0.6v0.2H62v0.2h-0.4v0.2h-0.4
		v0.2h-0.4v0.2h-0.6v0.2h-0.4v0.2h-0.4v0.2h-0.4v0.2h-0.6v0.2h-0.4v0.2h-0.4v0.2h-0.4v0.2h-0.2v0.2h-0.4v0.2h-0.4v0.2h-0.4v0.2h-0.4
		v0.2h-0.4v0.2H55v0.2h-0.4v0.2h-0.4v0.2h-0.4v0.2h-0.2v0.2h-0.4v0.2h-0.4v0.2h-0.4v0.2h-0.2v0.2h-0.4v0.2h-0.4v0.2h-0.2v0.2H51v0.2
		h-0.4v0.2h-0.2v0.2H50v0.2h-0.2v0.2h-0.4v0.2h-0.4v0.2h-0.2v0.2h-0.4v0.2h-0.2v0.2H48v0.2h-0.2v0.2h-0.4v0.2h-0.2v0.2h-0.4v0.2
		h-0.2v0.2h-0.4v0.2h-0.2v0.2h-0.2v0.2h-0.4v0.2h-0.2v0.2h-0.4v0.2h-0.2v0.2h-0.2v0.2h-0.4v0.2H44v0.2h-0.4v0.2h-0.2v0.2h-0.2v0.2
		H43v0.2h-0.4v0.2h-0.2v0.2h-0.2v0.2h-0.4v0.2h-0.2v0.2h-0.2v0.2h-0.2v0.2h-0.4v0.2h-0.2v0.2h-0.2v0.2h-0.2v0.2H40v0.2h-0.2v0.2
		h-0.2v0.2h-0.2v0.2h-0.2v0.2H39v0.2h-0.2v0.2h-0.4v0.2h-0.2v0.2h-0.2v0.2h-0.2v0.2h-0.2v0.2h-0.2v0.2h-0.4v0.2H37v0.2h-0.2v0.2
		h-0.2v0.2h-0.2v0.2h-0.2v0.2H36v0.2h-0.2v0.2h-0.2v0.2h-0.2v0.2h-0.2v0.2h-0.2v0.2h-0.2v0.2h-0.2v0.2h-0.2v0.2h-0.2v0.2h-0.2v0.2
		h-0.2v0.2h-0.2v0.2h-0.2v0.2h-0.2v0.2h-0.2v0.2H33v0.2h-0.2v0.2h-0.2v0.2h-0.2v0.2h-0.2v0.2H32v0.2h-0.2v0.2h-0.2v0.2h-0.2v0.2
		h-0.2v0.4h-0.2v0.2h-0.2v0.2h-0.2v0.2h-0.2v0.2h-0.2v0.2h-0.2v0.2h-0.2v0.4h-0.2v0.2h-0.2v0.2h-0.2v0.2h-0.2v0.2H29v0.2h-0.2v0.4
		h-0.2v0.2h-0.2v0.2h-0.2v0.2h-0.2v0.2h-0.2v0.4h-0.2v0.2h-0.2v0.2h-0.2v0.4h-0.2v0.2h-0.2v0.2h-0.2v0.2h-0.2v0.4h-0.2v0.2h-0.2v0.2
		H26v0.2h-0.2v0.4h-0.2v0.2h-0.2v0.4h-0.2v0.2H25v0.2h-0.2v0.4h-0.2v0.2h-0.2v0.4h-0.2v0.2h-0.2v0.2h-0.2v0.4h-0.2v0.2h-0.2v0.4
		h-0.2v0.2h-0.2v0.4h-0.2v0.2h-0.2v0.4h-0.2v0.2h-0.2v0.4h-0.2v0.4H22v0.2h-0.2v0.4h-0.2v0.2h-0.2v0.4h-0.2v0.2H21v0.4h-0.2v0.4
		h-0.2v0.2h-0.2v0.4h-0.2v0.4h-0.2v0.4h-0.2v0.2h-0.2v0.4h-0.2v0.4h-0.2v0.4h-0.2v0.2H19v0.4h-0.2v0.4h-0.2v0.4h-0.2v0.4h-0.2v0.4
		H18v0.4h-0.2v0.4h-0.2v0.4h-0.2v0.4h-0.2v0.4h-0.2v0.4h-0.2v0.4h-0.2v0.4h-0.2v0.4h-0.2v0.4h-0.2v0.6h-0.2v0.4h-0.2v0.4h-0.2v0.4
		h-0.2v0.4h-0.2v0.6H15v0.4h-0.2v0.6h-0.2v0.4h-0.2v0.6h-0.2v0.4H14v0.6h-0.2v0.6h-0.2v0.4h-0.2v0.6h-0.2v0.6h-0.2v0.6h-0.2v0.6
		h-0.2v0.6h-0.2v0.6h-0.2v0.6h-0.2v0.6h-0.2v0.8h-0.2v0.6h-0.2v0.8h-0.2v0.6h-0.2v0.8H11v0.8h-0.2v0.8h-0.2v0.8h-0.2v0.9h-0.2v0.8
		H10v0.8H9.9v1.1H9.7v1.1H9.5v0.9H9.3v1.1H9.1v1.5H8.9v1.3H8.7v1.5H8.5v2.7H8.3v3.4H8.2v4.9h0.2v4h0.2v2.7h0.2v0.2h0.2v0.2h0.2v0.2
		h0.4v0.2h0.2v0.2h0.2v0.2h0.4v-0.6H10v-3.6H9.9v-3.4H9.7v-6.3h0.2v-2.7H10V182h0.2v-1.5h0.2v-1.3h0.2v-1.5h0.2v-0.9H11v-1.1h0.2
		v-1.1h0.2v-0.9h0.2v-0.8h0.2v-0.9h0.2V171h0.2v-0.8h0.2v-0.8h0.2v-0.8h0.2V168h0.2v-0.6h0.2v-0.8h0.2v-0.6h0.2v-0.8h0.2v-0.6h0.2
		v-0.6H14v-0.6h0.2v-0.6h0.2v-0.4h0.2v-0.6h0.2v-0.6H15V161h0.2v-0.6h0.2V160h0.2v-0.6h0.2v-0.4h0.2v-0.6h0.2v-0.4h0.2v-0.6h0.2
		v-0.4h0.2v-0.4h0.2v-0.6h0.2v-0.4h0.2v-0.4h0.2v-0.4h0.2v-0.6h0.2v-0.4H18v-0.4h0.2v-0.4h0.2V153h0.2v-0.4h0.2v-0.4H19v-0.4h0.2
		v-0.4h0.2v-0.4h0.2v-0.4h0.2v-0.4h0.2V150h0.2v-0.4h0.2v-0.2h0.2V149h0.2v-0.4h0.2v-0.4H21v-0.2h0.2v-0.4h0.2v-0.4h0.2v-0.4h0.2
		v-0.2H22v-0.4h0.2V146h0.2v-0.2h0.2v-0.4h0.2v-0.4h0.2v-0.2h0.2v-0.4h0.2v-0.2h0.2v-0.4h0.2v-0.2h0.2v-0.4h0.2v-0.2h0.2v-0.4h0.2
		v-0.4h0.2v-0.2h0.2V142H25v-0.4h0.2v-0.2h0.2v-0.4h0.2v-0.2h0.2v-0.2H26v-0.4h0.2v-0.2h0.2v-0.4h0.2v-0.2h0.2v-0.2h0.2V139h0.2
		v-0.2h0.2v-0.2h0.2v-0.4h0.2V138h0.2v-0.2h0.2v-0.4h0.2v-0.2h0.2v-0.2h0.2v-0.2h0.2v-0.4H29v-0.2h0.2v-0.2h0.2V136h0.2v-0.4h0.2
		v-0.2h0.2v-0.2h0.2V135h0.2v-0.2h0.2v-0.2h0.2v-0.4h0.2v-0.2h0.2v-0.2h0.2v-0.2h0.2v-0.2h0.2v-0.2h0.2v-0.4H32v-0.2h0.2v-0.2h0.2
		v-0.2h0.2v-0.2h0.2V132H33v-0.2h0.2v-0.2h0.2v-0.2h0.2v-0.2h0.2V131h0.2v-0.2h0.2v-0.2h0.2v-0.2h0.2v-0.2h0.2v-0.4h0.2v-0.2h0.2
		v-0.2h0.2v-0.2h0.2v-0.2h0.2v-0.2H36v-0.2h0.2v-0.2h0.2v-0.2h0.2v-0.2h0.2V128H37v-0.2h0.2v-0.2h0.2v-0.2h0.2v-0.2h0.2V127h0.2
		v-0.2h0.2v-0.2h0.2v-0.2h0.2v-0.2h0.2v-0.2H39v-0.2h0.2v-0.2h0.2v-0.2h0.2v-0.2h0.2v-0.2H40V125h0.2v-0.2h0.4v-0.2h0.2v-0.2h0.2
		v-0.2h0.2V124h0.2v-0.2h0.2v-0.2h0.4v-0.2h0.2v-0.2h0.2v-0.2h0.4v-0.2h0.2v-0.2H43v-0.2h0.2v-0.2h0.4v-0.2h0.2v-0.2H44v-0.2h0.2
		v-0.2h0.4v-0.2h0.2v-0.2h0.2V121h0.4v-0.2h0.2v-0.2h0.4v-0.2h0.2v-0.2h0.2V120h0.4v-0.2h0.2v-0.2h0.4v-0.2h0.2v-0.2h0.2v-0.2H48
		v-0.2h0.2v-0.2h0.4v-0.2h0.2v-0.2h0.4v-0.2h0.4V118h0.2v-0.2H50v-0.2h0.2v-0.2h0.4v-0.2h0.2V117h0.4v-0.2h0.2v-0.2h0.4v-0.2h0.4
		v-0.2h0.2v-0.2h0.4v-0.2h0.4v-0.2h0.4v-0.2h0.2v-0.2H54v-0.2h0.4v-0.2h0.4v-0.2H55v-0.2h0.4v-0.2h0.4v-0.2h0.4V114h0.4v-0.2h0.4
		v-0.2h0.4v-0.2h0.4v-0.2H58V113h0.4v-0.2h0.4v-0.2h0.4v-0.2h0.4v-0.2h0.4v-0.2h0.4v-0.2h0.4v-0.2h0.6v-0.2h0.4v-0.2H62v-0.2h0.4
		v-0.2h0.4v-0.2h0.6v-0.2h0.4v-0.2h0.6v-0.2h0.4V110h0.6v-0.2h0.4v-0.2h0.6v-0.2h0.6v-0.2h0.4V109h0.6v-0.2h0.6v-0.2h0.6v-0.2h0.6
		v-0.2h0.6v-0.2h0.6v-0.2h0.6v-0.2h0.6v-0.2h0.8v-0.2H73v-0.2h0.8V107h0.6v-0.2h0.8v-0.2h0.8v-0.2h0.8v-0.2h0.9V106h0.8v-0.2H79
		v-0.2H80v-0.2h1.1v-0.2h1.1v-0.2h0.9v-0.2h1.3v-0.2H86v-0.2h1.5v-0.2h1.9v-0.2h2.7v-0.2h9.9v0.2h2.5v0.2h2.1v0.2h1.5v0.2h1.5v0.2
		h1.1v0.2h1.1v0.2h1.1v0.2h0.9v0.2h0.9v0.2h0.9v0.2h0.8v0.2h0.8v0.2h0.9v0.2h0.8v0.2h0.6v0.2h0.8v0.2h0.6v0.2h0.8v0.2h0.6v0.2h0.8
		v0.2h0.6v0.2h0.6v0.2h0.6v0.2h0.6v0.2h0.6v0.2h0.6v0.2h0.4v0.2h0.6v0.2h0.6v0.2h0.4v0.2h0.6v0.2h0.4v0.2h0.6v0.2h0.4v0.2h0.6v0.2
		h0.4v0.2h0.4v0.2h0.6v0.2h0.4v0.2h0.4v0.2h0.4v0.2h0.4v0.2h0.6v0.2h0.4v0.2h0.4v0.2h0.4v0.2h0.4v0.2h0.4v0.2h0.4v0.2h0.4v0.2h0.4
		v0.2h0.4v0.2h0.4v0.2h0.4v0.2h0.2v0.2h0.4v0.2h0.4v0.2h0.4v0.2h0.2v0.2h0.4v0.2h0.4v0.2h0.4v0.2h0.2v0.2h0.4v0.2h0.4v0.2h0.4v0.2
		h0.2v0.2h0.4v0.2h0.2v0.2h0.4v0.2h0.2v0.2h0.4v0.2h0.4v0.2h0.2v0.2h0.4v0.2h0.2v0.2h0.4v0.2h0.2v0.2h0.4v0.2h0.2v0.2h0.4v0.2h0.2
		v0.2h0.2v0.2h0.4v0.2h0.2v0.2h0.4v0.2h0.2v0.2h0.2v0.2h0.4v0.2h0.2v0.2h0.4v0.2h0.2v0.2h0.2v0.2h0.2v0.2h0.4v0.2h0.2v0.2h0.2v0.2
		h0.2v0.2h0.4v0.2h0.2v0.2h0.2v0.2h0.4v0.2h0.2v0.2h0.2v0.2h0.2v0.2h0.4v0.2h0.2v0.2h0.2v0.2h0.2v0.2h0.2v0.2h0.2v0.2h0.2v0.2h0.4
		v0.2h0.2v0.2h0.2v0.2h0.2v0.2h0.2v0.2h0.2v0.2h0.4v0.2h0.2v0.2h0.2v0.2h0.2v0.2h0.2v0.2h0.2v0.2h0.2v0.2h0.2v0.2h0.2v0.2h0.2v0.2
		h0.2v0.2h0.2v0.2h0.2v0.2h0.2v0.2h0.2v0.2h0.2v0.2h0.2v0.2h0.2v0.2h0.2v0.2h0.2v0.2h0.2v0.2h0.2v0.2h0.2v0.2h0.2v0.2h0.2v0.2h0.2
		v0.2h0.2v0.2h0.2v0.2h0.2v0.2h0.2v0.2h0.2v0.2h0.2v0.4h0.2v0.2h0.2v0.2h0.2v0.2h0.2v0.2h0.2v0.2h0.2v0.4h0.2v0.2h0.2v0.2h0.2v0.2
		h0.2v0.2h0.2v0.2h0.2v0.2h0.2v0.4h0.2v0.2h0.2v0.2h0.2v0.2h0.2v0.4h0.2v0.2h0.2v0.2h0.2v0.2h0.2v0.4h0.2v0.2h0.2v0.2h0.2v0.2h0.2
		v0.4h0.2v0.2h0.2v0.2h0.2v0.4h0.2v0.2h0.2v0.2h0.2v0.4h0.2v0.2h0.2v0.4h0.2v0.2h0.2v0.2h0.2v0.4h0.2v0.2h0.2v0.4h0.2v0.2h0.2v0.4
		h0.2v0.2h0.2v0.4h0.2v0.2h0.2v0.4h0.2v0.2h0.2v0.4h0.2v0.2h0.2v0.4h0.2v0.2h0.2v0.4h0.2v0.4h0.2v0.2h0.2v0.4h0.2v0.4h0.2v0.2h0.2
		v0.4h0.2v0.4h0.2v0.4h0.2v0.2h0.2v0.4h0.2v0.4h0.2v0.2h0.2v0.4h0.2v0.4h0.2v0.4h0.2v0.4h0.2v0.4h0.2v0.4h0.2v0.4h0.2v0.4h0.2v0.4
		h0.2v0.4h0.2v0.4h0.2v0.4h0.2v0.4h0.2v0.4h0.2v0.4h0.2v0.6h0.2v0.4h0.2v0.4h0.2v0.4h0.2v0.4h0.2v0.6h0.2v0.4h0.2v0.6h0.2v0.4h0.2
		v0.6h0.2v0.4h0.2v0.6h0.2v0.4h0.2v0.6h0.2v0.6h0.2v0.6h0.2v0.6h0.2v0.6h0.2v0.6h0.2v0.6h0.2v0.4h0.2v0.8h0.2v0.6h0.2v0.8h0.2v0.6
		h0.2v0.8h0.2v0.6h0.2v0.8h0.2v0.8h0.2v0.9h0.2v0.8h0.2v0.8h0.2v0.9h0.2v1.1h0.2v0.9h0.2v1.1h0.2v1.1h0.2v1.5h0.2v1.3h0.2v1.7h0.2
		v2.5h0.2v4.5h0.2v2.1h-0.2v3.4H184v3.6h-0.2v1.9h0.4v-0.2h0.2v-0.2h0.2v-0.2h0.2V200h0.2v-0.2h0.2v-0.2h0.2v-0.2h0.2v-4h0.2v-9.9
		h-0.2v-2.5h-0.2v-1.9h-0.2v-1.5H185v-1.5h-0.2v-1.3h-0.2v-0.9h-0.2v-1.1h-0.2v-0.9H184v-0.9h-0.2V172h-0.2v-0.8h-0.2v-0.8h-0.2
		v-0.9h-0.2v-0.8h-0.2v-0.6h-0.2v-0.8h-0.2v-0.6h-0.2v-0.8h-0.2v-0.6h-0.2v-0.8h-0.2v-0.6h-0.2v-0.6h-0.2v-0.6h-0.2v-0.6H181v-0.6
		h-0.2v-0.6h-0.2v-0.6h-0.2v-0.4h-0.2v-0.6H180v-0.4h-0.2v-0.6h-0.2v-0.6h-0.2v-0.4h-0.2v-0.6h-0.2V157h-0.2v-0.6h-0.2V156h-0.2
		v-0.4h-0.2v-0.4h-0.2v-0.4H178v-0.6h-0.2V154h-0.2v-0.4h-0.2v-0.4h-0.2v-0.6H177v-0.4h-0.2v-0.2h-0.2v-0.4h-0.2v-0.4h-0.2v-0.4
		h-0.2v-0.4h-0.2v-0.4h-0.2v-0.4h-0.2v-0.4h-0.2V149h-0.2v-0.4h-0.2v-0.4h-0.2v-0.2h-0.2v-0.4h-0.2v-0.4h-0.2v-0.4H174v-0.2h-0.2
		v-0.4h-0.2V146h-0.2v-0.4h-0.2v-0.2H173v-0.4h-0.2v-0.4h-0.2v-0.2h-0.2v-0.4h-0.2v-0.2h-0.2v-0.4h-0.2v-0.2h-0.2V143h-0.2v-0.4
		h-0.2v-0.2h-0.2V142h-0.2v-0.2h-0.2v-0.4h-0.2v-0.2h-0.2v-0.4h-0.2v-0.2H170v-0.2h-0.2v-0.4h-0.2v-0.2h-0.2v-0.4h-0.2v-0.2h-0.2
		v-0.2h-0.2v-0.4h-0.2v-0.2h-0.2v-0.4h-0.2V138h-0.2v-0.2h-0.2v-0.4h-0.2v-0.2h-0.2v-0.2h-0.2v-0.2h-0.2v-0.4H167v-0.2h-0.2v-0.2
		h-0.2v-0.4h-0.2v-0.2h-0.2v-0.2H166v-0.2h-0.2v-0.4h-0.2v-0.2h-0.2v-0.2h-0.2v-0.2h-0.2v-0.2h-0.2v-0.2h-0.2v-0.4h-0.2v-0.2h-0.2
		v-0.2h-0.2v-0.2h-0.2v-0.2h-0.2v-0.2h-0.2v-0.4h-0.2V132h-0.2v-0.2H163v-0.2h-0.2v-0.2h-0.2v-0.2h-0.2V131h-0.2v-0.2H162v-0.2h-0.2
		v-0.2h-0.2v-0.2h-0.2v-0.2h-0.2v-0.4h-0.2v-0.2h-0.2v-0.2h-0.2v-0.2h-0.2v-0.2h-0.2v-0.2h-0.2v-0.2H160v-0.2h-0.2v-0.2h-0.2V128
		h-0.2v-0.2h-0.2v-0.2H159v-0.2h-0.2v-0.2h-0.2V127h-0.2v-0.2h-0.4v-0.2h-0.2v-0.2h-0.2v-0.2h-0.2v-0.2h-0.2v-0.2h-0.2v-0.2h-0.2
		v-0.2h-0.2v-0.2h-0.2v-0.2h-0.2V125h-0.2v-0.2H156v-0.2h-0.4v-0.2h-0.2v-0.2h-0.2V124H155v-0.2h-0.2v-0.2h-0.2v-0.2h-0.4v-0.2h-0.2
		v-0.2h-0.2v-0.2h-0.2v-0.2h-0.2v-0.2h-0.2v-0.2h-0.4v-0.2h-0.2v-0.2h-0.2v-0.2h-0.4v-0.2H152v-0.2h-0.2v-0.2h-0.2V121h-0.4v-0.2
		h-0.2v-0.2h-0.2v-0.2h-0.2v-0.2h-0.4V120h-0.2v-0.2h-0.2v-0.2h-0.4v-0.2h-0.2v-0.2H149v-0.2h-0.2v-0.2h-0.4v-0.2h-0.2v-0.2H148
		v-0.2h-0.4v-0.2h-0.2V118h-0.4v-0.2h-0.2v-0.2h-0.2v-0.2h-0.4v-0.2h-0.4V117h-0.2v-0.2h-0.4v-0.2h-0.2v-0.2h-0.4v-0.2h-0.2v-0.2
		h-0.4v-0.2H144v-0.2h-0.4v-0.2h-0.4v-0.2h-0.2v-0.2h-0.4v-0.2h-0.4v-0.2h-0.2v-0.2h-0.4v-0.2h-0.4v-0.2H141V114h-0.2v-0.2h-0.4
		v-0.2h-0.4v-0.2h-0.4v-0.2h-0.2V113h-0.4v-0.2h-0.4v-0.2h-0.4v-0.2H138v-0.2h-0.4v-0.2h-0.4v-0.2h-0.4v-0.2h-0.4v-0.2h-0.4v-0.2
		h-0.4v-0.2h-0.4v-0.2h-0.4v-0.2h-0.4v-0.2H134v-0.2h-0.4v-0.2h-0.4V110h-0.4v-0.2h-0.4v-0.2h-0.6v-0.2h-0.4v-0.2h-0.4V109h-0.6
		v-0.2h-0.4v-0.2h-0.6v-0.2h-0.6v-0.2h-0.4v-0.2h-0.6v-0.2h-0.4v-0.2h-0.6v-0.2h-0.6v-0.2H126v-0.2h-0.6V107h-0.6v-0.2h-0.6v-0.2
		h-0.6v-0.2h-0.6v-0.2h-0.6V106h-0.8v-0.2h-0.6v-0.2h-0.8v-0.2H120v-0.2h-0.8v-0.2h-0.8v-0.2h-0.9v-0.2h-0.8v-0.2H116v-0.2H115v-0.2
		h-0.9v-0.2H113v-0.2H112v-0.2h-1.1v-0.2h-1.3v-0.2H108V103h-1.5v-0.2h-2.3v-0.2h-2.5v-0.2H92.3z"/>
	<path class="st1" d="M104.7,192.1l-1.8-1l-5.8-9v-1.8L104.7,192.1"/>
	<path class="st1" d="M122.8,200.7l-1.8-1h-11.5l-0.5,1H122.8z"/>
</g>
</svg>
