<?xml version="1.0" encoding="utf-8"?>
<!-- Generator: Adobe Illustrator 19.0.0, SVG Export Plug-In . SVG Version: 6.00 Build 0)  -->
<svg version="1.1" id="Layer_1" xmlns="http://www.w3.org/2000/svg" xmlns:xlink="http://www.w3.org/1999/xlink" x="0px" y="0px"
	 viewBox="75 515 2200 1620" style="enable-background:new 75 515 2200 1620;" xml:space="preserve">
<style type="text/css">
	.st0{fill:#2B5D9C;}
</style>
<g>
	<path class="st0" d="M450.3,1018.8v665.6c0,18.1-2,27.1,4,36.1c3,6,9,9,14,9c7,0,13-3,17-10c6-9,5-18,5-37.1v-663.6h31.1v678.6
		c0,46.1-17,69.2-53.1,69.2c-15,0-28.1-5-38.1-16c-10-11-15-28.1-15-52.1v-679.6H450.3z M740.9,1018.8l51.1,429v-429h23v743.8H782
		l-50.1-457.1v457.1h-27.1v-743.8H740.9L740.9,1018.8z M1085.8,1050.8h-49.1v302.7h49.1v26.1h-49.1v351.9h56.1v31.1H992.6v-743.8
		h93.2V1050.8L1085.8,1050.8z M307.9,913.5h1751.2v62.2H307.9V913.5z M307.9,1817.7h1751.2v62.2H307.9V1817.7z M195.6,1943h1959.7
		v62.1H195.6V1943z M96.4,2064.3h2157.2v63.1H96.4V2064.3z M303.9,843.3v-66.2L1175,522.6l880.1,250.6v66.2L1167,597.7L303.9,843.3z
		"/>
	<path class="st0" d="M503.4,843.3L1184,647.9l671.6,195.5h-181.4L1182,710L690.8,839.3L503.4,843.3z M1335.4,1233.3h38.1v-144.4
		c0,0-1-42.1-11.1-54.1c-10-11-22-21-48.1-21c-25.1,1-31.1,8-40.1,19.1c-10,11-14,30.1-14,50.1c0,20.1,1,109.3,4,139.3
		c3,29.1,31.1,147.4,47.1,204.5c15,58.1,22.1,87.2,23.1,103.3c1,17,3,74.2,1,102.2c-1,28.1,0,67.2,0,67.2s2,31.1-16,31.1
		c-19.1,0-17-31.1-17-31.1V1523h-38.1v175.4c0,0-10,64.2,50.1,64.2c61.2,0,61.2-57.1,61.2-57.1V1545c0,0-3-53.1-13-90.2
		c-10-36.1-42.1-151.4-49.1-183.4c-8-34.1-11-84.2-11-129.3c0-45.1,1-73.2,1-73.2s-1-21.1,16-21.1c16,0,15,22.1,15,22.1
		L1335.4,1233.3L1335.4,1233.3z M1627.1,1235.3h33.1v-173.4c0-27.1-15-54.1-52.1-54.1c-34.1,0-54.1,25.1-54.1,55.1v651.6
		c0,29.1,20,54.1,54.1,54.1c37.1,0,52.1-26.1,52.1-53.1V1520h-33.1v194.5c0,10,1,22-19.1,22c-21,0-19-18.1-19-25.1v-646.5
		c0-7-2-25.1,19-25.1c20.1,0,19.1,13,19.1,23V1235.3L1627.1,1235.3z M1903.7,1007.7c-34.1,0-58.1,25.1-58.1,55.1v651.6
		c0,29.1,24.1,54.1,58.1,54.1c37.1,0,56.1-26.1,56.1-53.1v-653.6C1959.9,1034.8,1940.8,1007.7,1903.7,1007.7L1903.7,1007.7z
		 M1926.8,1714.4c0,10-3,22-23,22c-21,0-23-18.1-23-25.1v-646.5c0-7,2-25.1,23-25.1c20.1,0,23,13,23,23V1714.4z"/>
</g>
</svg>
