<?xml version="1.0" standalone="no"?>
<!DOCTYPE svg PUBLIC "-//W3C//DTD SVG 20010904//EN"
 "http://www.w3.org/TR/2001/REC-SVG-20010904/DTD/svg10.dtd">
<svg version="1.0" xmlns="http://www.w3.org/2000/svg"
 width="512.000000pt" height="512.000000pt" viewBox="0 0 512.000000 512.000000"
 preserveAspectRatio="xMidYMid meet">
<metadata>
Created by potrace 1.14, written by Peter Selinger 2001-2017
</metadata>
<g transform="translate(0.000000,512.000000) scale(0.100000,-0.100000)"
fill="#000000" stroke="none">
<path d="M719 4706 c-103 -28 -199 -111 -247 -214 l-27 -57 0 -1880 0 -1880
27 -57 c37 -80 107 -152 187 -191 l66 -32 1840 0 1840 0 66 32 c80 39 150 111
187 191 l27 57 0 1880 0 1880 -32 66 c-39 80 -111 150 -191 187 l-57 27 -1820
2 c-1421 1 -1830 -1 -1866 -11z m1572 -2144 l415 -997 -54 -3 c-30 -2 -56 -1
-59 1 -2 3 -40 92 -85 198 -44 107 -93 227 -110 267 l-30 72 -556 -2 -555 -3
-110 -267 -110 -268 -58 0 -58 0 43 103 c23 56 211 506 416 1000 l374 897 61
0 60 -1 416 -997z m831 286 l3 -711 468 437 467 437 65 -3 64 -3 -350 -324
c-311 -288 -348 -325 -336 -340 8 -9 157 -180 332 -381 175 -201 325 -373 333
-382 14 -17 11 -18 -51 -18 l-66 0 -312 358 c-172 196 -316 358 -320 360 -5 2
-74 -56 -154 -130 l-144 -133 -1 -227 0 -228 -45 0 -45 0 0 1000 0 1000 45 0
45 0 2 -712z"/>
<path d="M1807 3428 c-2 -7 -118 -286 -256 -620 -138 -334 -251 -610 -251
-613 0 -3 232 -5 516 -5 423 0 515 2 511 13 -14 36 -510 1232 -512 1235 -1 2
-5 -3 -8 -10z"/>
</g>
</svg>
